<svg width="32" height="25" viewBox="0 0 32 25" fill="none" xmlns="http://www.w3.org/2000/svg">
<path d="M30.7202 0L25.1851 0.00809225C24.74 0 24.3759 0.364151 24.3678 0.809225C24.3597 1.2543 24.7239 1.61845 25.1689 1.62654C25.177 1.62654 25.177 1.62654 25.1851 1.62654L28.77 1.61845L19.9899 10.3662L16.9229 7.32349C16.7692 7.17783 16.5588 7.105 16.3484 7.11309C16.138 7.105 15.9276 7.17783 15.7738 7.32349L0.236698 22.8606C-0.0788994 23.1762 -0.0788994 23.686 0.236698 23.9935C0.390451 24.1473 0.592757 24.2282 0.811248 24.2282C1.02974 24.2282 1.23205 24.1473 1.3858 23.9935L16.3565 9.02286L19.4234 12.1141C19.5691 12.2759 19.7795 12.365 19.998 12.3731C20.2165 12.365 20.4188 12.2679 20.5725 12.1141L29.911 2.76755L29.9029 6.3686C29.9029 6.82177 30.259 7.18592 30.7121 7.2021C31.1653 7.19401 31.5213 6.82177 31.5213 6.3686L31.5294 0.817317C31.5294 0.372244 31.1653 0 30.7202 0Z" fill="white"/>
</svg>
