<svg width="1440" height="376" viewBox="0 0 1440 376" fill="none" xmlns="http://www.w3.org/2000/svg">
<path d="M-181 196.875C-181 196.875 -180.619 197.036 -179.88 197.349C-42.0704 253.852 1092.94 107.605 1460.56 34.3585C1483.24 8.22929 1514.64 -7.34895 1558.02 -3.38811C1601.71 0.600277 1558.2 14.9046 1460.56 34.3585C1374.22 133.878 1414.5 386.456 1401.56 295.486C1386.77 266.782 1373.11 252.953 1401.56 206.006C1315.77 151.583 1310.59 167.049 1245.11 206.006C1179.63 244.963 898.842 382.611 926.695 332.007C954.549 281.404 755.698 401.458 647.772 370.964C588.705 212.216 279.624 396.701 224.888 370.964C171.956 346.075 -158.184 206.517 -179.88 197.349C-180.261 197.192 -180.634 197.034 -181 196.875Z" fill="#1B264B" fill-opacity="0.21"/>
</svg>
