<svg width="21" height="24" viewBox="0 0 21 24" fill="none" xmlns="http://www.w3.org/2000/svg">
<path d="M9.02326 1.58629H5.23868V0.4847C5.23868 0.215422 5.02326 0 4.75398 0C4.4847 0 4.26928 0.215422 4.26928 0.4847V1.58629H0.4847C0.215422 1.58629 0 1.80171 0 2.07099C0 2.34027 0.215422 2.55569 0.4847 2.55569H9.02815C9.29743 2.55569 9.51285 2.34027 9.51285 2.07099C9.50795 1.80171 9.29253 1.58629 9.02326 1.58629Z" transform="translate(5.71848 21.4443)" fill="#2C2F33"/>
<path d="M9.73317 8.35741C8.51897 8.64137 7.57895 9.64504 7.38801 10.8935H5.4492C5.64994 10.1591 6.32069 9.62056 7.11383 9.62056C7.38311 9.62056 7.59853 9.40514 7.59853 9.13586C7.59853 8.86659 7.38311 8.65116 7.11383 8.65116C5.78213 8.65116 4.67075 9.62056 4.45532 10.8935H0.631579C0.582619 10.8788 0.538556 10.869 0.4847 10.869C0.215422 10.869 3.73532e-08 11.0845 3.73532e-08 11.3537V13.9976C3.73532e-08 14.6095 0.499388 15.1089 1.11138 15.1089H19.8335C20.4455 15.1089 20.9449 14.6095 20.9449 13.9976V1.11138C20.9449 0.499388 20.4455 7.47064e-08 19.8335 7.47064e-08H14.5949C14.3256 7.47064e-08 14.1102 0.215422 14.1102 0.4847C14.1102 0.753978 14.3256 0.9694 14.5949 0.9694H19.8335C19.9119 0.9694 19.9755 1.03305 19.9755 1.11138V14.0024C19.9755 14.0808 19.9119 14.1444 19.8335 14.1444H1.11138C1.03305 14.1444 0.9694 14.0808 0.9694 14.0024V11.8678H18.4578C18.7271 11.8678 18.9425 11.6524 18.9425 11.3831C18.9425 11.1138 18.7271 10.8984 18.4578 10.8984H16.3868C16.1714 9.62546 15.06 8.65606 13.7283 8.65606C13.459 8.65606 13.2436 8.87148 13.2436 9.14076C13.2436 9.41004 13.459 9.62546 13.7283 9.62546C14.5263 9.62546 15.1922 10.164 15.3929 10.8984H13.4639C13.2583 9.50796 12.1126 8.42105 10.7026 8.29376C10.12 8.25949 9.73317 8.35741 9.73317 8.35741ZM10.4284 9.24847C11.4321 9.24847 12.2693 9.95349 12.4798 10.8935H8.37699C8.58262 9.95349 9.42472 9.24847 10.4284 9.24847Z" transform="translate(0 5.20923)" fill="#2C2F33"/>
<path d="M6.85434 0.4847C6.85434 0.215422 6.63892 7.47064e-08 6.36965 7.47064e-08H1.11138C0.499388 7.47064e-08 3.73532e-08 0.499388 3.73532e-08 1.11138V9.56671C3.73532e-08 9.83599 0.215422 10.0514 0.4847 10.0514C0.753978 10.0514 0.9694 9.83599 0.9694 9.56671V1.11138C0.9694 1.03305 1.03305 0.9694 1.11138 0.9694H6.36965C6.63892 0.9694 6.85434 0.753978 6.85434 0.4847Z" transform="translate(0 5.20923)" fill="#2C2F33"/>
<path d="M5.81151 13.0722C6.08078 13.0722 6.29621 12.8568 6.29621 12.5875V11.6524H7.36353C7.6328 11.6524 7.84823 11.437 7.84823 11.1677V10.2032C7.84823 9.87515 7.7552 9.55202 7.57895 9.27295L6.82987 8.09302C6.75643 7.98042 6.72215 7.84823 6.72215 7.71603V3.84333C6.72215 3.25581 6.51163 2.68788 6.12485 2.24235L4.33293 0.166463C4.2399 0.0587515 4.10771 0 3.96573 0C3.82375 0 3.69155 0.0636475 3.59853 0.171359L1.82619 2.24725C1.4492 2.69278 1.23868 3.25581 1.23868 3.83843V7.68666C1.23868 7.83354 1.19461 7.97062 1.11138 8.08813L0.313342 9.23868C0.107711 9.53244 -1.49413e-07 9.87515 -1.49413e-07 10.2326V11.1677C-1.49413e-07 11.437 0.215423 11.6524 0.4847 11.6524L1.36597 11.6573V12.5924C1.36597 12.8617 1.5814 13.0771 1.85067 13.0771C2.11995 13.0771 2.33537 12.8617 2.33537 12.5924V11.6573L2.34027 11.6524C2.60955 11.6524 2.82497 11.437 2.82497 11.1677C2.82497 10.8984 2.60955 10.683 2.34027 10.683H0.9694V10.2326C0.9694 10.0759 1.01836 9.92411 1.10649 9.79192L1.90453 8.64137C2.10037 8.3574 2.20318 8.02938 2.20318 7.68176V3.83843C2.20318 3.48592 2.33048 3.14321 2.55569 2.87882L3.97552 1.22889L5.39535 2.87393C5.62546 3.14321 5.75275 3.48592 5.75275 3.83843V7.71114C5.75275 8.02938 5.84088 8.33782 6.01224 8.6071L6.76132 9.78703C6.83966 9.90942 6.87883 10.0514 6.87883 10.1983V10.6781H5.5765C5.30722 10.6781 5.0918 10.8935 5.0918 11.1628C5.0918 11.339 5.18482 11.4908 5.32681 11.5741V12.5875C5.32681 12.8568 5.54712 13.0722 5.81151 13.0722Z" transform="translate(6.46268)" fill="#3C92CA"/>
<path d="M1.49413e-07 0.4847V2.57527C1.49413e-07 2.83476 0.195839 3.06487 0.455325 3.07956C0.734394 3.09425 0.969401 2.87393 0.969401 2.59486V0.4847C0.969401 0.215423 0.753978 -1.49413e-07 0.4847 -1.49413e-07C0.215422 -1.49413e-07 1.49413e-07 0.215423 1.49413e-07 0.4847Z" transform="translate(9.89474 11.0256)" fill="#2C2F33"/>
</svg>
