<svg xmlns="http://www.w3.org/2000/svg" data-name="Layer 1" viewBox="0 0 5 6.25" x="0px" y="0px"><title>icon</title><g><path d="M3.20137.74151C3.14.82459,3.02439.80418,2.93289.803a.73371.73371,0,0,0-.29431.033.51639.51639,0,0,0-.24437.21935,1.86588,1.86588,0,0,1-.17755.31694c-.0062.0066.00256.01871.01018.01285a1.17379,1.17379,0,0,0,.24159-.25051A.48043.48043,0,0,1,2.757.90853c.09526-.02059.20007.0174.29783.00159.0836-.01348.19683-.05289.1949-.15628A.02608.02608,0,0,0,3.20137.74151Z" fill="#000000"/><path d="M3.43039.65506A.63146.63146,0,0,0,3.10827.34313a.58735.58735,0,0,0-.4822.01007.65176.65176,0,0,0-.20223.14525A1.18648,1.18648,0,0,0,2.2865.71182c-.00569.00933.00836.01666.01439.00813a.83008.83008,0,0,1,.1486-.13962A.95765.95765,0,0,1,2.62334.46182.48846.48846,0,0,1,3.00324.42821.55834.55834,0,0,1,3.28258.644a.26092.26092,0,0,1,.00705.30352.01892.01892,0,0,0,.02161.02724A.22293.22293,0,0,0,3.43039.65506Z" fill="#000000"/><path d="M3.25926,1.3242a.11488.11488,0,0,1-.08957-.01882.38549.38549,0,0,0,.04123-.15173l-.00671-.00085c-.03037.14109-.1995.24733-.3158.31529a.63187.63187,0,0,1-.18358.07291A.20894.20894,0,0,1,2.491,1.44561c-.00518-.00671-.01615-.00063-.01155.00705a.54094.54094,0,0,0,.04794.06927.03224.03224,0,0,0-.00984.0124.14119.14119,0,0,0,.00057.11977.28846.28846,0,0,0,.08354.08934c.00927.00762.028.00017.02241-.01353-.011-.02644-.0219-.05255-.03139-.07968a.16584.16584,0,0,1-.00523-.07182.236.236,0,0,0,.05562.02906.34972.34972,0,0,0,.24471-.04026.67264.67264,0,0,0,.24477-.20058c.04635.0236.0927-.00438.13512-.02337C3.2786,1.33836,3.27041,1.32027,3.25926,1.3242Z" fill="#000000"/><path d="M2.89677,1.711c-.011-.006-.02684.00751-.0182.01877.081.10544.12284.22993.00239.32541a.40759.40759,0,0,1-.37131.0352,1.27873,1.27873,0,0,1-.34793-.17852c-.11084-.07348-.22339-.1457-.33326-.22043-.01172-.008-.0219.011-.01069.01894.13865.0989.23578.24818.36721.35566a.749.749,0,0,0,.466.18108.38524.38524,0,0,0,.35231-.19927A.25276.25276,0,0,0,2.89677,1.711Z" fill="#000000"/><path d="M3.33462,2.91918a.59564.59564,0,0,0-.31586-.21366L2.99709,2.697a.32375.32375,0,0,0,.06415-.04362.25545.25545,0,0,0,.05568-.27093c-.00193-.00933-.0161-.0066-.01621.0025a.24472.24472,0,0,1-.11118.2007.632.632,0,0,1-.18608.06847.5535.5535,0,0,0-.20451.02877c-.04618.01507-.0923.02952-.13848.04368-.01547.00165-.03094.00313-.04624.00364a.29407.29407,0,0,1-.14542-.03645.31791.31791,0,0,1-.15474-.2653A.00642.00642,0,0,0,2.1015,2.427a.31251.31251,0,0,0-.00887.19734.29556.29556,0,0,0,.11761.142.27429.27429,0,0,0,.03862.02212q-.05127.01425-.10294.028c-.08491.02241-.16907.04624-.25324.0712l-.03236.00916a.58263.58263,0,0,0,.06341-.21116c.01513-.0811.02513-.16327.036-.24505.01155-.08655.00728-.17573.01985-.26137a.009.009,0,0,0-.0174-.00455c-.02468.07513-.05556.14291-.07427.2206-.01808.07467-.03088.15116-.04362.22685a2.50034,2.50034,0,0,1-.084.30483.369.369,0,0,0-.09054.045c-.00683.00483-.00733.01831.0029.01985a.50558.50558,0,0,0,.16515-.01143c.07791-.01427.156-.028.23362-.04379a2.81431,2.81431,0,0,0,.44529-.12312,1.04424,1.04424,0,0,1,.25671-.0749A.40555.40555,0,0,0,2.8705,2.7368a.50608.50608,0,0,1,.05562.00756.96539.96539,0,0,1,.38638.19245C3.32484,2.946,3.34337,2.93413,3.33462,2.91918Z" fill="#000000"/><path d="M1.97332,3.447c-.04106.09321-.13763.16043-.19211.2475a1.15873,1.15873,0,0,0-.14092.33559.63776.63776,0,0,0,.13274.58309c.01615.0178.05038-.00165.04106-.02462a.898.898,0,0,1-.063-.57877,1.74787,1.74787,0,0,1,.129-.31921.96871.96871,0,0,0,.11107-.23629C1.99339,3.444,1.978,3.43641,1.97332,3.447Z" fill="#000000"/><path d="M3.3767,3.07762c-.01758-.01035-.04209.01194-.02884.02963a.73074.73074,0,0,1,.17573.43056.61687.61687,0,0,1-.169.43011.61073.61073,0,0,1-.82376.04544c-.01-.00922-.02451.00574-.01467.01507a.66872.66872,0,0,0,.45394.20957.64177.64177,0,0,0,.46508-.19188.61.61,0,0,0,.11027-.14872c-.00807.04555-.01808.09128-.02917.13484a.413.413,0,0,1-.13012.201.351.351,0,0,1-.22731.1A.84763.84763,0,0,1,2.91975,4.324a.009.009,0,0,0-.00455.01746,1.15811,1.15811,0,0,0,.26416.06915.34168.34168,0,0,0,.171-.04464c-.00654.02434-.01217.04834-.01871.06961a1.73536,1.73536,0,0,1-.08889.248.00979.00979,0,0,0,.01547.0116.52551.52551,0,0,0,.12818-.19939.93126.93126,0,0,0,.073-.22344.60519.60519,0,0,0,.10032-.16981.572.572,0,0,0,.02076-.28151A.59967.59967,0,0,0,3.3767,3.07762Z" fill="#000000"/><path d="M3.35833,2.55089c-.04919-.10566-.09173-.21372-.131-.32336-.038-.106-.08189-.207-.125-.31062a.01017.01017,0,0,0-.01951.00569c.02519.10015.04419.19967.07615.2984.03412.1051.07137.20906.114.31108.04186.1.09463.19484.13689.29476.04163.098.07239.2.10566.30107a.01545.01545,0,0,0,.03014-.00455A1.282,1.282,0,0,0,3.35833,2.55089Z" fill="#000000"/><path d="M3.3378,3.02928c-.04174-.02-.08508-.03441-.12654-.05607A.25126.25126,0,0,0,3.076,2.94642a.00755.00755,0,0,0-.00176.01479c.08741.01808.162.10879.25393.10606A.02043.02043,0,0,0,3.3378,3.02928Z" fill="#000000"/><path d="M3.04867,1.19868c-.05994.00728-.1047-.05323-.14991-.0828-.034-.02218-.12074-.05306-.12409.01638-.0025.05118.08178.07638.12017.08911a.21673.21673,0,0,0,.15668-.00358C3.06147,1.21444,3.06,1.19726,3.04867,1.19868Z" fill="#000000"/><path d="M3.18448,3.085A3.84627,3.84627,0,0,0,2.78116,3.028a.68084.68084,0,0,0-.38262.10737,3.206,3.206,0,0,1-.426.18517A1.02622,1.02622,0,0,1,1.7497,3.377a1.87744,1.87744,0,0,1-.2065.00552l-.01706-.01439A.26916.26916,0,0,1,1.45978,3.237a.85777.85777,0,0,1-.00734-.28355c.0112-.145.03264-.28873.04885-.43312a3.59936,3.59936,0,0,0,.00813-.45667A.35446.35446,0,0,1,1.63727,1.752c.08457-.05761.18278-.08758.263-.15327a1.00439,1.00439,0,0,0,.20416-.24591c.03162-.04976.06005-.10072.08661-.15332.02235-.0443.039-.09338.06512-.13586l.01336-.02c.007-.01092-.01023-.0203-.01735-.00973-.03327.04726-.09827.03122-.14377.01678A.17579.17579,0,0,1,1.97616.94237c-.03623-.097.11323-.237.18506-.27957.00927-.00546.0008-.01865-.00859-.0141a.57953.57953,0,0,0-.21838.139.20859.20859,0,0,0-.03736.228.2571.2571,0,0,0,.19876.14138.20021.20021,0,0,0,.06244-.01029l-.00631.00813c-.035.0476-.06733.09651-.1.14576a.985.985,0,0,1-.24983.27013,1.51739,1.51739,0,0,0-.25279.162.46465.46465,0,0,0-.1035.28151,1.88582,1.88582,0,0,0,.00489.226,1.86582,1.86582,0,0,1-.011.23027c-.01433.153-.04044.30465-.05363.45775-.01427.1643-.04874.4081.07211.54311a.06662.06662,0,0,0,.05954.03844,1.07423,1.07423,0,0,0,.41129-.06995,4.08122,4.08122,0,0,0,.39417-.18739c.06762-.03458.13376-.07154.20075-.1072a.48879.48879,0,0,1,.23578-.0919c.14485.00165.28179.10435.42539.06477A.01737.01737,0,0,0,3.18448,3.085Z" fill="#000000"/><path d="M3.167,4.4839c-.087.02565-.179.02906-.26644.05471-.0596.0174-.17908.06665-.16822.14468a.02143.02143,0,0,0,.0269.01985c.03338-.00825.05289-.03406.08053-.05278a.49928.49928,0,0,1,.1155-.0501.73981.73981,0,0,0,.218-.10208C3.18,4.493,3.17618,4.48117,3.167,4.4839Z" fill="#000000"/></g><text x="0" y="20" fill="#000000" font-size="5px" font-weight="bold" font-family="'Helvetica Neue', Helvetica, Arial-Unicode, Arial, Sans-serif">Created by Alice Noir</text><text x="0" y="25" fill="#000000" font-size="5px" font-weight="bold" font-family="'Helvetica Neue', Helvetica, Arial-Unicode, Arial, Sans-serif">from the Noun Project</text></svg>