<svg width="21" height="16" viewBox="0 0 21 16" fill="none" xmlns="http://www.w3.org/2000/svg">
<path d="M9.73317 8.35741C8.51897 8.64137 7.57895 9.64504 7.38801 10.8935H5.4492C5.64994 10.1591 6.32069 9.62056 7.11383 9.62056C7.38311 9.62056 7.59853 9.40514 7.59853 9.13586C7.59853 8.86659 7.38311 8.65116 7.11383 8.65116C5.78213 8.65116 4.67075 9.62056 4.45532 10.8935H0.631579C0.582619 10.8788 0.538556 10.869 0.4847 10.869C0.215422 10.869 3.73532e-08 11.0845 3.73532e-08 11.3537V13.9976C3.73532e-08 14.6095 0.499388 15.1089 1.11138 15.1089H19.8335C20.4455 15.1089 20.9449 14.6095 20.9449 13.9976V1.11138C20.9449 0.499388 20.4455 7.47064e-08 19.8335 7.47064e-08H14.5949C14.3256 7.47064e-08 14.1102 0.215422 14.1102 0.4847C14.1102 0.753978 14.3256 0.9694 14.5949 0.9694H19.8335C19.9119 0.9694 19.9755 1.03305 19.9755 1.11138V14.0024C19.9755 14.0808 19.9119 14.1444 19.8335 14.1444H1.11138C1.03305 14.1444 0.9694 14.0808 0.9694 14.0024V11.8678H18.4578C18.7271 11.8678 18.9425 11.6524 18.9425 11.3831C18.9425 11.1138 18.7271 10.8984 18.4578 10.8984H16.3868C16.1714 9.62546 15.06 8.65606 13.7283 8.65606C13.459 8.65606 13.2436 8.87148 13.2436 9.14076C13.2436 9.41004 13.459 9.62546 13.7283 9.62546C14.5263 9.62546 15.1922 10.164 15.3929 10.8984H13.4639C13.2583 9.50796 12.1126 8.42105 10.7026 8.29376C10.12 8.25949 9.73317 8.35741 9.73317 8.35741ZM10.4284 9.24847C11.4321 9.24847 12.2693 9.95349 12.4798 10.8935H8.37699C8.58262 9.95349 9.42472 9.24847 10.4284 9.24847Z" transform="translate(0 0.209229)" fill="#2C2F33"/>
</svg>
