<svg width="40" height="40" viewBox="0 0 52 52" fill="none" xmlns="http://www.w3.org/2000/svg">
<rect width="51.6239" height="51.5969" fill="black" fill-opacity="0" transform="translate(0 0.193848)"/>
<rect width="51.6239" height="51.5969" fill="black" fill-opacity="0" transform="translate(0 0.193848)"/>
<path d="M51.3755 10.9483C51.3743 10.9471 51.373 10.9458 51.3718 10.9446L41.046 0.450357C40.8818 0.28081 40.6557 0.188111 40.4218 0.194123C40.1881 0.198386 39.9664 0.299175 39.8075 0.473422L36.6109 3.9715C36.2991 4.31278 36.305 4.84252 36.6243 5.17648L36.8667 5.42976L35.5975 6.71968L33.5924 6.2107C31.7941 5.76339 29.8969 6.31106 28.5984 7.65235L24.9409 11.9844L20.691 7.66514C19.4795 6.42682 17.6812 5.99514 16.0525 6.55144C15.9552 6.58467 15.8646 6.63496 15.7844 6.7L15.5508 6.8913L14.9844 6.31576L16.097 5.185C16.433 4.84372 16.4331 4.29015 16.0973 3.94876C16.0972 3.94865 16.0971 3.94854 16.097 3.94843L12.6551 0.450357C12.3193 0.108857 11.7746 0.108748 11.4387 0.450029C11.4386 0.450138 11.4385 0.450248 11.4384 0.450357L0.252094 11.8191C-0.0839239 12.1604 -0.0840314 12.714 0.251772 13.0553C0.251879 13.0555 0.251987 13.0556 0.252094 13.0557L3.69402 16.5538C4.02983 16.8953 4.57451 16.8954 4.91053 16.5541C4.91064 16.554 4.91074 16.5539 4.91085 16.5538L5.29947 16.1588L7.33849 18.2311L6.83769 20.2688C6.39841 22.0696 6.9147 23.9728 8.19983 25.2905L15.4888 32.9115V39.7482C15.5046 41.3157 16.37 42.7464 17.7391 43.4683C18.4732 43.8653 18.9317 44.642 18.9307 45.4872V45.6691H18.0702C17.5952 45.6688 17.21 46.0599 17.2097 46.5426C17.2097 46.543 17.2097 46.5433 17.2097 46.5436V50.9162C17.2094 51.399 17.5942 51.7904 18.0692 51.7907C18.0696 51.7907 18.0699 51.7907 18.0702 51.7907H34.4194C34.8943 51.7911 35.2795 51.3999 35.2798 50.9172C35.2798 50.9169 35.2798 50.9166 35.2798 50.9162V46.5436C35.2802 46.0609 34.8953 45.6694 34.4203 45.6691C34.42 45.6691 34.4197 45.6691 34.4194 45.6691H33.5589V44.7903L34.9227 43.5119C36.2279 42.5084 36.9966 40.9427 37.0008 39.2793V29.0348C38.0197 28.9104 38.9669 28.4381 39.6873 27.6953L44.236 22.6754C45.3052 21.5966 45.6775 19.9936 45.1956 18.5427C45.0577 18.121 45.7989 16.7408 46.682 15.6823C46.8396 15.8412 47.0517 15.932 47.2737 15.9354H47.2821C47.5086 15.9354 47.7261 15.8445 47.8871 15.6825L51.3685 12.1844C51.7063 11.8451 51.7095 11.2917 51.3755 10.9483ZM4.30249 14.6989L2.07739 12.4374L12.0468 2.30521L14.272 4.56661L4.30249 14.6989ZM15.565 30.482L9.42505 24.0624C8.56123 23.1789 8.21317 21.9017 8.50659 20.6924L9.12592 18.1748C9.1996 17.8769 9.11366 17.5616 8.89983 17.3446L6.5163 14.9222L13.7678 7.55244L14.8804 8.68319C15.1911 8.99878 15.6858 9.026 16.0283 8.74637L16.7349 8.16821C17.7114 7.89077 18.7592 8.17138 19.4744 8.90182L24.2178 13.7226L24.2096 13.7288C23.8258 14.0873 23.5396 14.5407 23.3794 15.0449C22.8461 14.7511 22.2384 14.6271 21.6349 14.6887C20.073 14.8958 18.9109 16.2582 18.9307 17.8589V27.0046C17.2193 27.3637 15.8902 28.7369 15.565 30.482ZM33.5589 50.0417H18.9307V47.4182H33.5589V50.0417ZM35.2798 39.2793C35.2698 40.4223 34.7298 41.4935 33.8227 42.1694L32.1161 43.763C31.9387 43.9286 31.8378 44.1622 31.8379 44.407V45.6692H20.6516V45.4873C20.6536 43.9957 19.8443 42.6251 18.5483 41.9252C17.7409 41.5063 17.2263 40.6694 17.2097 39.7483V31.2892C17.2131 30.1811 17.9022 29.1949 18.9307 28.8268V34.3005H20.6516V17.8588C20.6253 17.154 21.1209 16.5402 21.8062 16.4291C22.1713 16.3909 22.5352 16.5116 22.8079 16.7613C23.0799 17.0088 23.2347 17.3629 23.2331 17.734V30.8023H24.9541V15.985C24.9535 15.2608 25.5308 14.6733 26.2434 14.6728C26.2832 14.6728 26.3229 14.6746 26.3625 14.6782C27.0593 14.7963 27.5615 15.4219 27.5355 16.1394V30.8022H29.2565V18.6085C29.2559 17.8843 29.8332 17.2969 30.5458 17.2963C30.5856 17.2963 30.6253 17.2982 30.6649 17.3018C31.3617 17.4199 31.8639 18.0455 31.8379 18.763V30.8022H33.5589V23.5794C34.5874 23.9476 35.2765 24.9337 35.2798 26.0418V39.2793ZM43.5636 19.0962C43.8369 19.9311 43.6159 20.8514 42.9947 21.4644L38.4461 26.4844C38.0525 26.8886 37.5494 27.1642 37.0007 27.276V26.042C36.998 23.965 35.5605 22.1755 33.5588 21.7574V18.7631C33.589 17.1375 32.4027 15.7529 30.8143 15.5596C30.2747 15.5135 29.7327 15.6138 29.2437 15.85C29.1423 14.3368 27.994 13.1121 26.5119 12.9361C26.4753 12.9329 26.4392 12.9399 26.4027 12.9382L29.8597 8.84027C30.7291 7.9627 31.9857 7.60895 33.1755 7.90684L35.6528 8.53627C35.9459 8.61093 36.256 8.5237 36.4696 8.30649L38.0663 6.68371L45.4804 14.4325C44.6862 15.3689 43.0546 17.545 43.5636 19.0962ZM47.2939 13.8191L38.4285 4.55294L40.4604 2.32817L49.5433 11.5593L47.2939 13.8191Z" fill="#111111"/>
</svg>
