<svg width="32" height="37" viewBox="0 0 62 60" fill="none" xmlns="http://www.w3.org/2000/svg">
<rect width="61.8621" height="59.4828" fill="black" fill-opacity="0" transform="translate(0.103516 0.482788)"/>
<rect width="61.8621" height="59.4828" fill="black" fill-opacity="0" transform="translate(0.103516 0.482788)"/>
<rect width="61.8621" height="59.4828" fill="black" fill-opacity="0" transform="translate(0.103516 0.482788)"/>
<path d="M60.8293 53.9165H54.5509L53.0266 39.7333L54.7135 42.2115L55.1314 44.2611C55.3331 45.2491 55.9671 46.0899 56.8718 46.5708C57.3844 46.843 57.9474 46.9802 58.5135 46.9802C58.9468 46.9802 59.3822 46.8995 59.797 46.7372C60.6904 46.3873 61.3985 45.6816 61.7412 44.8005C62.0829 43.9193 62.0325 42.9313 61.6023 42.0874L60.7212 40.3604C60.7182 40.3534 60.712 40.3493 60.7079 40.3433C60.7058 40.3383 60.7058 40.3332 60.7037 40.3282L54.5282 29.2382C54.414 29.0325 54.2287 28.8722 54.0074 28.7845L51.2182 27.6916C53.3117 26.0261 54.6538 23.4875 54.6538 20.6464C54.6538 19.1271 54.2452 17.631 53.4938 16.2921L52.9627 11.0879C54.6198 10.4003 55.6831 9.05032 55.6831 7.54006C55.6831 5.36945 53.4835 3.59404 50.7396 3.51036C49.6455 1.65026 47.6168 0.482788 45.3905 0.482788C43.1643 0.482788 41.1356 1.65026 40.0415 3.51036C37.2976 3.59404 35.098 5.36945 35.098 7.54006C35.098 9.05032 36.1613 10.4003 37.8184 11.0879L37.2873 16.2921C36.5359 17.631 36.1273 19.1271 36.1273 20.6464C36.1273 23.4875 37.4694 26.0261 39.564 27.6906L36.7747 28.7835C36.61 28.848 36.4649 28.9539 36.3537 29.09L32.88 33.3435L28.6827 30.0548L27.5619 28.2249C27.3715 27.9134 27.1286 27.6493 26.8661 27.4083V24.6792C26.8661 23.3665 26.0026 22.2575 24.8076 21.8401V17.6219H25.8368C27.5392 17.6219 28.9246 16.2649 28.9246 14.5973V8.54825C28.9246 6.88071 27.5392 5.5237 25.8368 5.5237H21.7198C20.0175 5.5237 18.6321 6.88071 18.6321 8.54825V14.5973C18.6321 16.2649 20.0175 17.6219 21.7198 17.6219H22.7491V21.8401C21.5541 22.2575 20.6906 23.3665 20.6906 24.6792V28.7119C20.6906 28.7129 20.6906 28.7149 20.6906 28.7159C20.4333 29.3158 20.318 29.9701 20.4014 30.6395C20.5486 31.806 21.2227 32.8223 22.2509 33.4272L24.1983 34.5714L31.0407 40.436C32.1904 41.42 33.8753 41.4412 35.0507 40.4824L37.9275 38.1334L36.2302 53.9165H18.2369L19.4442 51.5513C21.3709 50.8223 22.747 49.0006 22.747 46.8592V44.6573C23.942 44.2399 24.8055 43.1309 24.8055 41.8183C24.8055 40.1507 23.4202 38.7937 21.7178 38.7937H3.19127C1.48889 38.7937 0.103516 40.1507 0.103516 41.8183C0.103516 43.1309 0.967057 44.2399 2.16202 44.6573V46.8592C2.16202 49.0006 3.53813 50.8223 5.46488 51.5513L6.67219 53.9165H1.13277C0.56462 53.9165 0.103516 54.3681 0.103516 54.9246V58.9574C0.103516 59.5139 0.56462 59.9655 1.13277 59.9655H60.8293C61.3975 59.9655 61.8586 59.5139 61.8586 58.9574V54.9246C61.8586 54.3681 61.3975 53.9165 60.8293 53.9165ZM22.747 15.6055H21.7178C21.1507 15.6055 20.6885 15.1528 20.6885 14.5973V8.54825C20.6885 7.99274 21.1507 7.54006 21.7178 7.54006H22.747V15.6055ZM59.7609 42.9878C59.937 43.3326 59.9575 43.7217 59.8176 44.0826C59.6776 44.4426 59.3987 44.7208 59.0333 44.864C58.6494 45.0142 58.2181 44.99 57.8537 44.7964C57.4894 44.6029 57.2321 44.2631 57.1508 43.8649L56.8852 42.5633L59.2494 41.9846L59.7609 42.9878ZM52.8989 30.5216L58.2593 40.1477L56.137 40.6669L52.5181 35.3498L51.0236 29.7866L52.8989 30.5216ZM50.6397 36.7774L52.4821 53.9165H38.3L40.1414 36.7774H50.6397ZM40.551 34.761L42.0681 29.1101C42.1093 29.1252 42.1515 29.1363 42.1927 29.1505C42.3995 29.2251 42.6075 29.2966 42.8205 29.3571C42.9018 29.3803 42.9842 29.3985 43.0655 29.4186C43.2621 29.469 43.4586 29.5174 43.6593 29.5547C43.7602 29.5739 43.8621 29.585 43.963 29.6001C44.1493 29.6283 44.3345 29.6586 44.5239 29.6767C44.6567 29.6888 44.7905 29.6898 44.9233 29.6969C45.0797 29.705 45.2331 29.7201 45.3905 29.7201C45.548 29.7201 45.7014 29.705 45.8578 29.6969C45.9916 29.6898 46.1244 29.6888 46.2572 29.6767C46.4466 29.6596 46.6318 29.6293 46.8181 29.6001C46.919 29.585 47.0209 29.5739 47.1217 29.5547C47.3225 29.5174 47.519 29.468 47.7156 29.4186C47.7969 29.3975 47.8793 29.3803 47.9606 29.3571C48.1736 29.2966 48.3826 29.2261 48.5884 29.1505C48.6296 29.1353 48.6718 29.1252 48.713 29.1101L50.2311 34.761H40.551ZM37.1565 7.54006C37.1565 6.44719 38.5707 5.5237 40.2443 5.5237C40.304 5.5237 40.3606 5.53076 40.4182 5.53681L40.584 5.55193C41.0173 5.57713 41.4331 5.34021 41.6081 4.94399C42.2585 3.45894 43.7437 2.49915 45.3905 2.49915C47.0373 2.49915 48.5226 3.45894 49.1741 4.94399C49.348 5.34021 49.77 5.5852 50.1982 5.55193L50.3639 5.53681C50.4205 5.53076 50.4771 5.5237 50.5368 5.5237C52.2104 5.5237 53.6246 6.44719 53.6246 7.54006C53.6246 8.3456 52.7929 9.11585 51.6021 9.41428C51.1091 9.53727 50.7818 9.99499 50.8322 10.491L51.458 16.6137H39.3231L39.9479 10.492C39.9983 9.996 39.671 9.53828 39.178 9.41528C37.9882 9.11585 37.1565 8.3456 37.1565 7.54006ZM38.1858 20.6464C38.1858 19.9629 38.2897 19.2834 38.4894 18.6301H52.2906C52.4913 19.2834 52.5953 19.9629 52.5953 20.6464C52.5953 23.4451 50.9187 25.8618 48.502 27.002C48.2683 27.1119 48.0295 27.2097 47.7877 27.2934C47.7763 27.2974 47.765 27.3014 47.7537 27.3055C46.2201 27.8307 44.5589 27.8307 43.0253 27.3055C43.014 27.3014 43.0027 27.2974 42.9914 27.2934C42.7495 27.2097 42.5117 27.1119 42.2771 27.002C39.8624 25.8618 38.1858 23.4451 38.1858 20.6464ZM24.8055 7.54006H25.8348C26.4019 7.54006 26.864 7.99274 26.864 8.54825V14.5973C26.864 15.1528 26.4019 15.6055 25.8348 15.6055H24.8055V7.54006ZM23.7763 23.671C24.3434 23.671 24.8055 24.1237 24.8055 24.6792V26.4314C24.7994 26.4304 24.7922 26.4304 24.786 26.4294C24.7613 26.4263 24.7397 26.4153 24.715 26.4122C24.6584 26.4052 24.6028 26.4153 24.5472 26.4102C24.3681 26.3961 24.1911 26.3941 24.012 26.4042C23.9224 26.4092 23.8339 26.4092 23.7464 26.4203C23.5344 26.4465 23.3275 26.4949 23.1227 26.5554C23.0352 26.5816 22.9508 26.6088 22.8654 26.6401C22.8263 26.6542 22.7861 26.6633 22.7481 26.6784V24.6792H22.747C22.747 24.1237 23.2092 23.671 23.7763 23.671ZM23.31 31.6981C22.8273 31.4148 22.5113 30.939 22.4434 30.3925C22.3981 30.0366 22.4733 29.6888 22.6338 29.3793C22.6379 29.3712 22.6451 29.3662 22.6493 29.3581C22.6935 29.2755 22.7378 29.2049 22.7831 29.1394C22.8386 29.0637 22.8932 28.9871 22.9611 28.9206C23.1052 28.7784 23.273 28.6706 23.449 28.5869C23.4634 28.5798 23.4778 28.5707 23.4922 28.5637C23.6682 28.4861 23.8555 28.4377 24.047 28.4185C24.0614 28.4175 24.0748 28.4155 24.0892 28.4145C24.2755 28.3994 24.4638 28.4155 24.6491 28.4568C24.6686 28.4609 24.6882 28.4649 24.7067 28.4699C24.8992 28.5203 25.0865 28.598 25.2584 28.7129C25.2635 28.7159 25.2697 28.7179 25.2749 28.721C25.4818 28.8621 25.6619 29.0426 25.7967 29.2624L26.5985 30.572L24.647 32.4835L23.31 31.6981ZM33.7312 38.9328C33.3401 39.2514 32.7771 39.2464 32.3942 38.9177L26.3103 33.7034L27.9684 32.0792L32.3952 35.5484C32.8378 35.8962 33.4862 35.8266 33.8413 35.3911L37.7885 30.5579L39.7554 29.7876L38.3011 35.2026L33.7312 38.9328ZM3.19127 42.8264C2.62415 42.8264 2.16202 42.3738 2.16202 41.8183C2.16202 41.2628 2.62415 40.8101 3.19127 40.8101H21.7178C22.2849 40.8101 22.747 41.2628 22.747 41.8183C22.747 42.3738 22.2849 42.8264 21.7178 42.8264H3.19127ZM4.22052 46.8592V44.8428H20.6885V46.8592C20.6885 48.5267 19.3032 49.8837 17.6008 49.8837H7.30827C5.60589 49.8837 4.22052 48.5267 4.22052 46.8592ZM16.9647 51.9001L15.9355 53.9165H13.4838V51.9001H16.9647ZM11.4253 51.9001V53.9165H8.9736L7.94435 51.9001H11.4253ZM59.8001 57.9492H2.16202V55.9328H8.33752H16.5715H37.1565H53.6246H59.8001V57.9492Z" fill="white"/>
<rect width="8.23401" height="8.06546" fill="black" fill-opacity="0" transform="translate(41.2734 40.81)"/>
<rect width="8.23401" height="8.06546" fill="black" fill-opacity="0" transform="translate(41.2734 40.81)"/>
<path d="M48.4782 40.81H42.3027C41.7345 40.81 41.2734 41.2617 41.2734 41.8182V44.8427C41.2734 47.0668 43.1199 48.8755 45.3904 48.8755C47.661 48.8755 49.5074 47.0668 49.5074 44.8427V41.8182C49.5074 41.2617 49.0463 40.81 48.4782 40.81ZM47.4489 44.8427C47.4489 45.9548 46.5257 46.8591 45.3904 46.8591C44.2552 46.8591 43.3319 45.9548 43.3319 44.8427V42.8264H47.4489V44.8427Z" fill="white"/>
<rect width="2.0585" height="5.04091" fill="black" fill-opacity="0" transform="translate(11.4258 30.7283)"/>
<rect width="2.0585" height="5.04091" fill="black" fill-opacity="0" transform="translate(11.4258 30.7283)"/>
<path d="M13.4843 30.7283H11.4258V35.7692H13.4843V30.7283Z" fill="white"/>
<rect width="2.0585" height="4.03273" fill="black" fill-opacity="0" transform="translate(16.5703 32.7446)"/>
<rect width="2.0585" height="4.03273" fill="black" fill-opacity="0" transform="translate(16.5703 32.7446)"/>
<path d="M18.6288 32.7446H16.5703V36.7774H18.6288V32.7446Z" fill="white"/>
<rect width="2.0585" height="4.03273" fill="black" fill-opacity="0" transform="translate(6.2793 32.7446)"/>
<rect width="2.0585" height="4.03273" fill="black" fill-opacity="0" transform="translate(6.2793 32.7446)"/>
<path d="M8.3378 32.7446H6.2793V36.7774H8.3378V32.7446Z" fill="white"/>
<rect width="2.0585" height="2.01636" fill="black" fill-opacity="0" transform="translate(11.4258 26.6954)"/>
<rect width="2.0585" height="2.01636" fill="black" fill-opacity="0" transform="translate(11.4258 26.6954)"/>
<path d="M13.4843 26.6954H11.4258V28.7118H13.4843V26.6954Z" fill="white"/>
<rect width="2.0585" height="2.01636" fill="black" fill-opacity="0" transform="translate(6.2793 28.7118)"/>
<rect width="2.0585" height="2.01636" fill="black" fill-opacity="0" transform="translate(6.2793 28.7118)"/>
<path d="M8.3378 28.7118H6.2793V30.7282H8.3378V28.7118Z" fill="white"/>
<rect width="2.0585" height="2.01636" fill="black" fill-opacity="0" transform="translate(16.5703 28.7118)"/>
<rect width="2.0585" height="2.01636" fill="black" fill-opacity="0" transform="translate(16.5703 28.7118)"/>
<path d="M18.6288 28.7118H16.5703V30.7282H18.6288V28.7118Z" fill="white"/>
</svg>
