<svg width="40" height="40" viewBox="0 0 50 50" fill="none" xmlns="http://www.w3.org/2000/svg">
<rect width="50" height="50" fill="black" fill-opacity="0"/>
<rect width="11.8175" height="11.914" fill="black" fill-opacity="0" transform="translate(20.5098)"/>
<rect width="11.8175" height="11.914" fill="black" fill-opacity="0" transform="translate(20.5098)"/>
<path d="M21.2598 5.957C21.2598 3.13976 23.6496 0.75 26.4673 0.75C29.269 0.75 31.5773 3.12358 31.5773 5.957C31.5773 8.79042 29.269 11.164 26.4673 11.164C23.6496 11.164 21.2598 8.77425 21.2598 5.957Z" stroke="#111111" stroke-width="1.5"/>
<rect width="17.6774" height="8.78902" fill="black" fill-opacity="0" transform="translate(17.5801 11.9141)"/>
<rect width="17.6774" height="8.78902" fill="black" fill-opacity="0" transform="translate(17.5801 11.9141)"/>
<path d="M26.4676 15.5937C28.9708 15.5937 31.227 14.6085 32.9204 13.0336C33.9121 14.3675 34.5075 15.9989 34.5075 17.7734V19.2382C34.5075 19.6336 34.1881 19.9531 33.7925 19.9531H19.0451C18.6495 19.9531 18.3301 19.6336 18.3301 19.2382V17.7734C18.3301 15.9981 18.926 14.366 19.9185 13.0318C21.6341 14.6125 23.9704 15.5937 26.4676 15.5937Z" stroke="#111111" stroke-width="1.5"/>
<rect width="14.4624" height="21.6278" fill="black" fill-opacity="0" transform="translate(0 28.3723)"/>
<rect width="14.4624" height="21.6278" fill="black" fill-opacity="0" transform="translate(0 28.3723)"/>
<path d="M6.01703 30.3299L6.01704 30.3299L13.4826 45.2961C13.4827 45.2961 13.4827 45.2961 13.4827 45.2961C14.0209 46.3754 13.5804 47.6867 12.4995 48.222L12.4995 48.2221L10.5745 49.1757C10.5744 49.1757 10.5742 49.1758 10.574 49.1759C10.2194 49.3504 9.79096 49.2065 9.61602 48.8556L9.61563 48.8549L0.825762 31.2768C0.648736 30.9228 0.793298 30.4916 1.14767 30.3159L3.09863 29.3495L3.09868 29.3495C4.17532 28.8161 5.48069 29.2546 6.01703 30.3299Z" stroke="#111111" stroke-width="1.5"/>
<rect width="41.3086" height="21.0469" fill="black" fill-opacity="0" transform="translate(8.69141 23.0934)"/>
<rect width="41.3086" height="21.0469" fill="black" fill-opacity="0" transform="translate(8.69141 23.0934)"/>
<path d="M37.4715 34.9304L37.4914 34.9095L37.5096 34.8871L45.5028 25.0622C46.2439 24.2712 47.4753 24.1471 48.3604 24.794C49.34 25.5125 49.5372 26.9126 48.8191 27.8701L48.8115 27.8802L48.8042 27.8906L40.2168 40.1852C38.7178 42.1864 36.3075 43.3903 33.7926 43.3903H19.4846H17.4828L9.62016 27.6258L10.8301 26.5612L10.8482 26.5759L11.3194 26.2027C12.5643 25.2168 13.7514 24.51 15.5209 24.0999L15.5209 24.0999C18.7184 23.3589 21.8605 24.2778 23.9444 26.1529L23.9444 26.153L23.9522 26.1598C24.0138 26.2137 24.083 26.2772 24.1572 26.3452C24.3508 26.5227 24.578 26.731 24.792 26.8814C25.1438 27.1287 25.565 27.3123 26.1162 27.3123H26.1591H26.2018H26.2441H26.2861H26.3278H26.3692H26.4103H26.451H26.4915H26.5316H26.5715H26.611H26.6502H26.6892H26.7278H26.7661H26.8041H26.8419H26.8793H26.9165H26.9533H26.9898H27.0261H27.0621H27.0978H27.1332H27.1683H27.2031H27.2376H27.2719H27.3058H27.3395H27.3729H27.4061H27.4389H27.4715H27.5038H27.5358H27.5676H27.5991H27.6303H27.6612H27.6919H27.7223H27.7525H27.7824H27.812H27.8414H27.8705H27.8993H27.9279H27.9562H27.9843H28.0121H28.0397H28.067H28.0941H28.1209H28.1475H28.1738H28.1999H28.2257H28.2513H28.2767H28.3018H28.3267H28.3513H28.3757H28.3999H28.4238H28.4475H28.4709H28.4942H28.5172H28.54H28.5625H28.5848H28.6069H28.6288H28.6505H28.6719H28.6931H28.7141H28.7349H28.7554H28.7758H28.7959H28.8158H28.8355H28.855H28.8743H28.8934H28.9123H28.931H28.9494H28.9677H28.9858H29.0036H29.0213H29.0388H29.0561H29.0731H29.09H29.1067H29.1232H29.1395H29.1556H29.1716H29.1873H29.2029H29.2183H29.2335H29.2485H29.2633H29.278H29.2924H29.3067H29.3209H29.3348H29.3486H29.3622H29.3756H29.3889H29.402H29.4149H29.4277H29.4403H29.4527H29.465H29.4771H29.489H29.5008H29.5125H29.524H29.5353H29.5465H29.5575H29.5683H29.5791H29.5896H29.6001H29.6103H29.6205H29.6305H29.6403H29.65H29.6596H29.669H29.6783H29.6875H29.6965H29.7054H29.7141H29.7227H29.7312H29.7396H29.7478H29.7559H29.7639H29.7717H29.7795H29.7871H29.7946H29.802H29.8092H29.8163H29.8234H29.8303H29.8371H29.8438H29.8503H29.8568H29.8631H29.8694H29.8755H29.8816H29.8875H29.8933H29.8991H29.9047H29.9102H29.9157H29.921H29.9262H29.9314H29.9364H29.9414H29.9463H29.9511H29.9558H29.9604H29.9649H29.9694H29.9737H29.978H29.9822H29.9863H29.9904H29.9944H29.9982H30.0021H30.0058H30.0095H30.0131H30.0166H30.0201H30.0235H30.0268H30.0301H30.0333H30.0365H30.0396H30.0426H30.0455H30.0485H30.0513H30.0541H30.0569H30.0596H30.0622H30.0648H30.0674H30.0699H30.0723H30.0747H30.0771H30.0794H30.0817H30.0839H30.0862H30.0883H30.0905H30.0926H30.0946H30.0967H30.0987H30.1006H30.1026H30.1045H30.1064H30.1082H30.1101H30.1119H30.1137H30.1155H30.1172H30.119H30.1207H30.1224H30.1241H30.1258H30.1274H30.1291H30.1307H30.1324H30.134H30.1356H30.1373H30.1389H30.1405H30.1421H30.1437H30.1454H30.147H30.1486H30.1503H30.1519H30.1535H30.1552H30.1569H30.1586H30.1602H30.162H30.1637H30.1654H30.1672H30.169H30.1707H30.1726H30.1744H30.1763H30.1782H30.1801H30.182H30.184H30.186H30.188H30.1901H30.1922H30.1943H30.1965H30.1987H30.201H30.2032H30.2056H30.2079H30.2103H30.2128H30.2153H30.2179H30.2205H30.2231H30.2258H30.2286H30.2314H30.2342H30.2371H30.2401H30.2431H30.2462H30.2494H30.2526H30.2559H30.2592H30.2626H30.2661H30.2696H30.2732H30.2769H30.2806H30.2845H30.2884H30.2923H30.2964H30.3005H30.3047H30.309H30.3134H30.3178H30.3224H30.327H30.3317H30.3365H30.3413H30.3463H30.3514H30.3565H30.3618H30.3671H30.3726H30.3781H30.3837H30.3895H30.3953H30.4012H30.4073H30.4134H30.4197H30.426H30.4325H30.4391H30.4458H30.4526H30.4595H30.4665H30.4736H30.4809H30.4883H30.4958H30.5034H30.5111H30.519H30.527H30.5351H30.5433H30.5517H30.5602H30.5688H30.5776H30.5864H30.5955H30.6046H30.6139H30.6234H30.6329H30.6426H30.6525H30.6625H30.6726H30.6829H30.6933H30.7039H30.7146H30.7255H30.7365H30.7477H30.7591H30.7705H30.7822H30.794H30.8059H30.8181H30.8303H30.8428H30.8554H30.8682H30.8811H30.8942H30.9075H30.9209H30.9345H30.9483H30.9623H30.9764H30.9907H31.0052H31.0198H31.0347H31.0497H31.0649H31.0803H31.0959H31.1116H31.1275H31.1437H31.16H31.1765H31.1932H31.2101H31.2272H31.2445H31.2619H31.2796H31.2975H31.3156H31.3338H31.3523H31.371H31.3899H31.409H31.4283H31.4478H31.4675H31.4874H31.5076H31.5279H31.5485H31.5693H31.5903H31.6115H31.6329H31.6546H31.6765H31.6986H31.7209H31.7435H31.7663H31.7893H31.8125H31.836H31.8597H31.8836H31.9078H31.9322H31.9569H31.9817H32.0069H32.0322H32.0578H32.0837H32.1098H32.1361H32.1627H32.1895H32.2166H32.2439H32.2715H32.2993H32.3274H32.3558H32.3844H32.4132H32.4423H32.4717H32.5013H32.5312H32.5614H32.5918H32.6225H32.6535H32.6847H32.7162H32.748H32.78H32.8123H32.8449H32.8778H32.9109H32.9443H32.978H33.012H33.0463H33.0808H33.1157H33.1508H33.1862H33.2219H33.2579H33.2941H33.3307H33.3675H33.4047H33.4421H33.4799H33.5179H33.5563H33.5949H33.6338H33.6731H33.7126H33.7525H33.7926C34.99 27.3123 35.9726 28.2949 35.9726 29.4919C35.9726 30.689 34.99 31.6716 33.7926 31.6716H33.7825H33.7724H33.7623H33.7521H33.742H33.7318H33.7216H33.7114H33.7012H33.691H33.6808H33.6706H33.6604H33.6501H33.6399H33.6296H33.6193H33.609H33.5987H33.5884H33.5781H33.5678H33.5575H33.5471H33.5368H33.5264H33.516H33.5056H33.4953H33.4849H33.4745H33.464H33.4536H33.4432H33.4327H33.4223H33.4118H33.4013H33.3908H33.3804H33.3699H33.3593H33.3488H33.3383H33.3278H33.3172H33.3067H33.2961H33.2855H33.2749H33.2644H33.2538H33.2432H33.2325H33.2219H33.2113H33.2006H33.19H33.1793H33.1687H33.158H33.1473H33.1366H33.1259H33.1152H33.1045H33.0938H33.083H33.0723H33.0615H33.0508H33.04H33.0292H33.0184H33.0077H32.9969H32.9861H32.9752H32.9644H32.9536H32.9427H32.9319H32.921H32.9102H32.8993H32.8884H32.8776H32.8667H32.8558H32.8448H32.8339H32.823H32.8121H32.8011H32.7902H32.7792H32.7683H32.7573H32.7463H32.7354H32.7244H32.7134H32.7024H32.6914H32.6803H32.6693H32.6583H32.6472H32.6362H32.6251H32.6141H32.603H32.5919H32.5808H32.5698H32.5587H32.5476H32.5364H32.5253H32.5142H32.5031H32.4919H32.4808H32.4697H32.4585H32.4473H32.4362H32.425H32.4138H32.4026H32.3914H32.3802H32.369H32.3578H32.3466H32.3354H32.3241H32.3129H32.3016H32.2904H32.2791H32.2679H32.2566H32.2453H32.234H32.2228H32.2115H32.2002H32.1889H32.1775H32.1662H32.1549H32.1436H32.1322H32.1209H32.1096H32.0982H32.0868H32.0755H32.0641H32.0527H32.0414H32.03H32.0186H32.0072H31.9958H31.9844H31.973H31.9616H31.9501H31.9387H31.9273H31.9158H31.9044H31.893H31.8815H31.87H31.8586H31.8471H31.8356H31.8242H31.8127H31.8012H31.7897H31.7782H31.7667H31.7552H31.7437H31.7322H31.7206H31.7091H31.6976H31.6861H31.6745H31.663H31.6514H31.6399H31.6283H31.6167H31.6052H31.5936H31.582H31.5705H31.5589H31.5473H31.5357H31.5241H31.5125H31.5009H31.4893H31.4777H31.4661H31.4544H31.4428H31.4312H31.4196H31.4079H31.3963H31.3846H31.373H31.3613H31.3497H31.338H31.3264H31.3147H31.303H31.2913H31.2797H31.268H31.2563H31.2446H31.2329H31.2212H31.2095H31.1978H31.1861H31.1744H31.1627H31.151H31.1393H31.1276H31.1158H31.1041H31.0924H31.0807H31.0689H31.0572H31.0454H31.0337H31.0219H31.0102H30.9984H30.9867H30.9749H30.9632H30.9514H30.9396H30.9279H30.9161H30.9043H30.8925H30.8808H30.869H30.8572H30.8454H30.8336H30.8218H30.81H30.7982H30.7864H30.7746H30.7628H30.751H30.7392H30.7274H30.7156H30.7038H30.6919H30.6801H30.6683H30.6565H30.6447H30.6328H30.621H30.6092H30.5973H30.5855H30.5737H30.5618H30.55H30.5381H30.5263H30.5145H30.5026H30.4908H30.4789H30.4671H30.4552H30.4433H30.4315H30.4196H30.4078H30.3959H30.3841H30.3722H30.3603H30.3485H30.3366H30.3247H30.3129H30.301H30.2891H30.2772H30.2654H30.2535H30.2416H30.2297H30.2179H30.206H30.1941H30.1822H30.1704H30.1585H30.1466H30.1347H30.1228H30.1109H30.0991H30.0872H30.0753H30.0634H30.0515H30.0396H30.0277H30.0159H30.004H29.9921H29.9802H29.9683H29.9564H29.9445H29.9326H29.9207H29.9088H29.897H29.8851H29.8732H29.8613H29.8494H29.8375H29.8256H29.8137H29.8018H29.7899H29.7781H29.7662H29.7543H29.7424H29.7305H29.7186H29.7067H29.6948H29.6829H29.6711H29.6592H29.6473H29.6354H29.6235H29.6116H29.5997H29.5879H29.576H29.5641H29.5522H29.5403H29.5285H29.5166H29.5047H29.4928H29.4809H29.4691H29.4572H29.4453H29.4334H29.4216H29.4097H29.3978H29.386H29.3741H29.3622H29.3504H29.3385H29.3266H29.3148H29.3029H29.2911H29.2792H29.2674H29.2555H29.2437H29.2318H29.22H29.2081H29.1963H29.1844H29.1726H29.1607H29.1489H29.1371H29.1252H29.1134H29.1016H29.0897H29.0779H29.0661H29.0542H29.0424H29.0306H29.0188H29.007H28.9952H28.9833H28.9715H28.9597H28.9479H28.9361H28.9243H28.9125H28.9007H28.8889H28.8771H28.8654H28.8536H28.8418H28.83H28.8182H28.8064H28.7947H28.7829H28.7711H28.7594H28.7476H28.7358H28.7241H28.7123H28.7006H28.6888H28.6771H28.6653H28.6536H28.6419H28.6301H28.6184H28.6067H28.595H28.5832H28.5715H28.5598H28.5481H28.5364H28.5247H28.513H28.5013H28.4896H28.4779H28.4662H28.4545H28.4428H28.4311H28.4195H28.4078H28.3961H28.3845H28.3728H28.3612H28.3495H28.3379H28.3262H28.3146H28.3029H28.2913H28.2797H28.268H28.2564H28.2448H28.2332H28.2216H28.21H28.1984H28.1868H28.1752H28.1636H28.152H28.1404H28.1288H28.1173H28.1057H28.0941H28.0826H28.071H28.0595H28.0479H28.0364H28.0249H28.0133H28.0018H27.9903H27.9788H27.9672H27.9557H27.9442H27.9327C26.6981 31.6716 25.7178 32.6518 25.7178 33.8864C25.7178 35.1211 26.6981 36.1013 27.9327 36.1013H34.7596C35.1638 36.1013 35.6642 35.9818 36.1222 35.7986C36.5836 35.6141 37.093 35.3288 37.4715 34.9304Z" stroke="#111111" stroke-width="1.5"/>
</svg>
