<svg width="15" height="20" viewBox="0 0 15 20" fill="none" xmlns="http://www.w3.org/2000/svg">
<path d="M13.7199 11.4867C14.4955 10.2845 14.9053 8.88952 14.9053 7.45266C14.9053 5.47842 14.1411 3.61795 12.7534 2.21395C11.367 0.811172 9.51804 0.025125 7.54723 0.0005625C7.51564 0.0001875 7.48428 0 7.45278 0C5.49959 0 3.65379 0.754781 2.24632 2.13145C0.817293 3.52927 0.0196679 5.39283 0.000355442 7.37883C-0.0137071 8.83022 0.389652 10.2407 1.16684 11.4578C1.86036 12.544 2.81773 13.4271 3.94878 14.0303L1.91121 16.883C1.76539 17.0871 1.74617 17.3523 1.86087 17.5753C1.97562 17.7983 2.20273 17.9368 2.45351 17.9368H4.04211V18.6423C4.04211 19.0891 4.40553 19.4526 4.85234 19.4526H10.0529C10.4997 19.4526 10.8632 19.0891 10.8632 18.6423V17.9368H12.4518C12.7026 17.9368 12.9297 17.7983 13.0444 17.5753C13.1592 17.3523 13.1399 17.0871 12.9941 16.883L10.9564 14.0303C12.0769 13.4327 13.028 12.5594 13.7199 11.4867ZM4.04215 17.1789H2.63117L4.04215 15.2036V17.1789ZM10.1053 18.6424C10.1053 18.6712 10.0818 18.6947 10.0529 18.6947H4.85239C4.82356 18.6947 4.80003 18.6712 4.80003 18.6424V18.4118L10.1053 17.9697V18.6424ZM10.1053 17.2092L4.80003 17.6513V16.896L10.1053 16.4539V17.2092ZM12.2742 17.1789H10.8632V15.2036L12.2742 17.1789ZM10.3216 13.5029C10.1895 13.5657 10.1053 13.6989 10.1053 13.8452V14.1777L8.93431 14.2752C8.7379 14.2916 8.58682 14.4557 8.58682 14.6528C8.58682 14.8746 8.77629 15.0489 8.99722 15.0305L10.1053 14.9382V15.6935L4.80007 16.1356V15.3803L7.15137 15.1844C7.34778 15.168 7.49885 15.0038 7.49885 14.8067C7.49885 14.585 7.30939 14.4107 7.08846 14.4291L4.80007 14.6198V13.8452C4.80007 13.6989 4.71589 13.5657 4.58379 13.503C2.2347 12.3869 0.733152 9.98597 0.758324 7.38614C0.775621 5.60297 1.49225 3.92925 2.77634 2.67328C4.04121 1.43616 5.69895 0.757922 7.45306 0.757922C7.48123 0.757922 7.50954 0.758062 7.53781 0.758438C11.1824 0.803813 14.1475 3.80686 14.1475 7.45266C14.1474 10.0239 12.6457 12.3988 10.3216 13.5029Z" fill="#3C3737"/>
</svg>
