<svg width="32" height="32" viewBox="0 0 32 32" fill="none" xmlns="http://www.w3.org/2000/svg">
<rect width="32" height="32" fill="black" fill-opacity="0"/>
<rect width="32" height="32" fill="black" fill-opacity="0"/>
<rect width="32" height="32" fill="black" fill-opacity="0"/>
<rect width="32" height="32" fill="black" fill-opacity="0"/>
<path d="M11.8473 8.47683H11.8452C11.9807 8.79309 12.1531 9.09223 12.3588 9.36803C12.3844 9.41016 12.4149 9.44916 12.4495 9.48429L12.586 9.64429C13.2175 10.4086 13.386 10.7995 13.466 12.2619C13.4653 12.7514 13.6335 13.2261 13.9423 13.6059C13.8941 13.6845 13.8678 13.7746 13.866 13.8667V16C13.8659 16.5614 14.2175 17.0628 14.7455 17.2539C14.9967 17.9461 15.7615 18.3036 16.4537 18.0524C16.8249 17.9176 17.1173 17.6252 17.2521 17.2539C17.7805 17.0632 18.1326 16.5618 18.1327 16V13.8667C18.1305 13.7752 18.1042 13.686 18.0564 13.608C18.3603 13.2376 18.5282 12.7742 18.5321 12.295C18.6116 10.8016 18.7801 10.4112 19.4057 9.65443L19.5279 9.50829C19.5695 9.46596 19.6067 9.41956 19.6388 9.36963C19.847 9.09483 20.0218 8.79616 20.1593 8.48003C21.1603 6.18509 20.1113 3.51329 17.8164 2.51236C15.5215 1.51143 12.8497 2.56043 11.8487 4.85529C11.3452 6.00989 11.3447 7.32189 11.8473 8.47683ZM17.066 16C17.066 16.1473 16.9466 16.2667 16.7993 16.2667C16.5048 16.2667 16.266 16.5055 16.266 16.8C16.266 16.9473 16.1466 17.0667 15.9993 17.0667C15.8521 17.0667 15.7327 16.9473 15.7327 16.8C15.7327 16.5055 15.4939 16.2667 15.1993 16.2667C15.0521 16.2667 14.9327 16.1473 14.9327 16V14.4H17.066V16ZM12.8239 5.28269C13.5897 3.52776 15.6332 2.72589 17.3881 3.49176C19.1431 4.25763 19.9449 6.30109 19.1791 8.05603C19.0706 8.30443 18.9343 8.53969 18.7727 8.75736C18.7571 8.77223 18.7423 8.78789 18.7284 8.80429L18.5876 8.97229C17.7764 9.95469 17.5567 10.5958 17.4676 12.2694C17.4693 12.4562 17.4216 12.6402 17.3295 12.8027H14.6713C14.5767 12.6308 14.5287 12.4372 14.5321 12.2411C14.4441 10.5979 14.2233 9.95576 13.4052 8.96643L13.2585 8.79843C13.2484 8.77996 13.2372 8.76216 13.2249 8.74509C13.0637 8.53103 12.9291 8.29823 12.8239 8.05176C12.4409 7.16823 12.4401 6.16589 12.8239 5.28269Z" fill="#111111"/>
<path d="M16.5335 0H15.4668V1.06667H16.5335V0Z" fill="#111111"/>
<path d="M12.6076 2.25276L11.8496 1.49475L11.0954 2.24899L11.8534 3.007L12.6076 2.25276Z" fill="#111111"/>
<path d="M10.6663 5.86682H9.59961V6.93349H10.6663V5.86682Z" fill="#111111"/>
<path d="M11.0963 10.5492L11.8506 11.3035L12.6086 10.5455L11.8544 9.79122L11.0963 10.5492Z" fill="#111111"/>
<path d="M19.3934 10.548L20.1514 11.306L20.9056 10.5518L20.1476 9.79378L19.3934 10.548Z" fill="#111111"/>
<path d="M22.4007 5.86682H21.334V6.93349H22.4007V5.86682Z" fill="#111111"/>
<path d="M19.3932 2.25272L20.1475 3.00696L20.9055 2.24895L20.1512 1.49471L19.3932 2.25272Z" fill="#111111"/>
<path d="M19.1997 20.8H14.3997V19.2C14.3997 18.3163 13.6834 17.6 12.7997 17.6C11.9161 17.6 11.1997 18.3163 11.1997 19.2V24H10.6664C9.78274 24 9.06641 24.7163 9.06641 25.6V27.2C9.06641 27.3414 9.12267 27.477 9.22267 27.577L11.1997 29.5541V32H12.2664V29.3333C12.2664 29.1918 12.2101 29.0562 12.1101 28.9562L10.1331 26.9792V25.6C10.1331 25.3054 10.3719 25.0666 10.6664 25.0666H15.4664V25.6C15.4664 25.8945 15.2276 26.1333 14.9331 26.1333H12.7997C12.5052 26.1333 12.2664 26.3721 12.2664 26.6666C12.2664 26.9612 12.5052 27.2 12.7997 27.2C13.6834 27.2 14.3997 27.9163 14.3997 28.8V29.8666H15.4664V28.8C15.4672 28.2228 15.2799 27.6612 14.9331 27.2C15.3279 27.1986 15.7082 27.0503 15.9997 26.784C16.6027 27.3386 17.5301 27.3386 18.1331 26.784C18.5627 27.1852 19.1822 27.3092 19.7331 27.104V32H20.7997V22.4C20.7997 21.5163 20.0834 20.8 19.1997 20.8ZM13.3331 24H12.2664V19.2C12.2664 18.9054 12.5052 18.6666 12.7997 18.6666C13.0943 18.6666 13.3331 18.9054 13.3331 19.2V24ZM15.4664 24H14.3997V21.8666H15.4664V24ZM17.5997 25.6C17.5997 25.8945 17.3609 26.1333 17.0664 26.1333C16.7719 26.1333 16.5331 25.8945 16.5331 25.6V21.8666H17.5997V25.6ZM19.7331 25.6C19.7331 25.8945 19.4943 26.1333 19.1997 26.1333C18.9052 26.1333 18.6664 25.8945 18.6664 25.6V21.8666H19.1997C19.4943 21.8666 19.7331 22.1054 19.7331 22.4V25.6Z" fill="#111111"/>
<path d="M16.0007 4.79994V3.73328C14.5287 3.73501 13.3357 4.92794 13.334 6.39994H14.4007C14.4007 5.51628 15.117 4.79994 16.0007 4.79994Z" fill="#111111"/>
<path d="M31.4668 5.86682H24.0001C23.7056 5.86682 23.4668 6.10562 23.4668 6.40015V12.8002C23.4668 13.0947 23.7056 13.3335 24.0001 13.3335H26.1335C27.0171 13.3335 27.7335 12.6172 27.7335 11.7335V11.2002H28.2668C29.1505 11.2002 29.8668 10.4838 29.8668 9.60015V9.06682H30.4001C31.2838 9.06682 32.0001 8.35049 32.0001 7.46682V6.40015C32.0001 6.10562 31.7613 5.86682 31.4668 5.86682ZM30.9335 7.46682C30.9335 7.76135 30.6947 8.00015 30.4001 8.00015H27.7335V9.06682H28.8001V9.60015C28.8001 9.89469 28.5613 10.1335 28.2668 10.1335H25.6001V11.2002H26.6668V11.7335C26.6668 12.028 26.428 12.2668 26.1335 12.2668H24.5335V6.93349H30.9335V7.46682Z" fill="#111111"/>
<path d="M8 5.86682H0.533333C0.2388 5.86682 0 6.10562 0 6.40015V7.46682C0 8.35049 0.716333 9.06682 1.6 9.06682H2.13333V9.60015C2.13333 10.4838 2.84967 11.2002 3.73333 11.2002H4.26667V11.7335C4.26667 12.6172 4.983 13.3335 5.86667 13.3335H8C8.29453 13.3335 8.53333 13.0947 8.53333 12.8002V6.40015C8.53333 6.10562 8.29453 5.86682 8 5.86682ZM7.46667 12.2668H5.86667C5.57213 12.2668 5.33333 12.028 5.33333 11.7335V11.2002H6.4V10.1335H3.73333C3.4388 10.1335 3.2 9.89469 3.2 9.60015V9.06682H4.26667V8.00015H1.6C1.30547 8.00015 1.06667 7.76135 1.06667 7.46682V6.93349H7.46667V12.2668Z" fill="#111111"/>
</svg>
