<svg width="49" height="52" viewBox="0 0 49 52" fill="none" xmlns="http://www.w3.org/2000/svg">
<rect width="48.3974" height="51.5969" fill="black" fill-opacity="0" transform="translate(0 0.193848)"/>
<rect width="48.3974" height="51.5969" fill="black" fill-opacity="0" transform="translate(0 0.193848)"/>
<rect width="48.3974" height="51.5969" fill="black" fill-opacity="0" transform="translate(0 0.193848)"/>
<path d="M48.3974 33.1316V6.74424C48.3974 3.13235 45.1436 0.193848 41.1441 0.193848H7.25338C3.25387 0.193848 0 3.13235 0 6.74424V33.1316H14.5749V40.3167H6.39056C2.88751 40.3167 0.0377177 42.8904 0.0377177 46.0537C0.0377177 49.2171 2.88751 51.7907 6.39056 51.7907C9.8935 51.7907 12.7433 49.2171 12.7433 46.0537C12.7433 45.0726 12.4687 44.1485 11.9859 43.3399H36.4117C35.929 44.1485 35.6544 45.0726 35.6544 46.0537C35.6544 49.2172 38.5042 51.7907 42.0072 51.7907C45.5101 51.7907 48.3599 49.2171 48.3599 46.0537C48.3599 42.8904 45.5101 40.3167 42.0072 40.3167H33.8227V33.1316H48.3974ZM6.39056 48.7675C4.73355 48.7675 3.38543 47.55 3.38543 46.0537C3.38543 44.5574 4.73355 43.3399 6.39056 43.3399C8.04757 43.3399 9.39558 44.5573 9.39558 46.0537C9.39558 47.5501 8.04757 48.7675 6.39056 48.7675ZM42.0071 43.3399C43.6641 43.3399 45.0121 44.5573 45.0121 46.0537C45.0121 47.5501 43.6642 48.7675 42.0071 48.7675C40.3501 48.7675 39.002 47.55 39.002 46.0537C39.002 44.5574 40.3501 43.3399 42.0071 43.3399ZM3.34771 6.74424C3.34771 4.79938 5.09979 3.2171 7.25338 3.2171H41.1442C43.2978 3.2171 45.0498 4.79938 45.0498 6.74424V10.9631H3.34771V6.74424ZM17.9228 40.3167V33.1316H30.475V40.3167H17.9228ZM3.34771 30.1084V13.9863H45.0498V30.1084H3.34771Z" fill="#111111"/>
<rect width="11.2977" height="10.2027" fill="black" fill-opacity="0" transform="translate(7.94922 16.9459)"/>
<rect width="11.2977" height="10.2027" fill="black" fill-opacity="0" transform="translate(7.94922 16.9459)"/>
<path d="M13.5981 16.9459C10.4833 16.9459 7.94922 19.2344 7.94922 22.0473C7.94922 24.8601 10.4833 27.1486 13.5981 27.1486C16.7129 27.1486 19.247 24.8602 19.247 22.0473C19.247 19.2343 16.7129 16.9459 13.5981 16.9459ZM13.5981 24.1253C12.3293 24.1253 11.2969 23.1931 11.2969 22.0473C11.2969 20.9013 12.3293 19.9692 13.5981 19.9692C14.8669 19.9692 15.8993 20.9015 15.8993 22.0473C15.8993 23.1932 14.8669 24.1253 13.5981 24.1253Z" fill="#111111"/>
<rect width="11.2976" height="10.2027" fill="black" fill-opacity="0" transform="translate(27.8242 16.9459)"/>
<rect width="11.2976" height="10.2027" fill="black" fill-opacity="0" transform="translate(27.8242 16.9459)"/>
<path d="M33.473 16.9459C30.3583 16.9459 27.8242 19.2344 27.8242 22.0473C27.8242 24.8601 30.3583 27.1486 33.473 27.1486C36.5877 27.1486 39.1219 24.8602 39.1219 22.0473C39.1219 19.2343 36.5877 16.9459 33.473 16.9459ZM33.473 24.1253C32.2043 24.1253 31.1719 23.1931 31.1719 22.0473C31.1719 20.9013 32.2043 19.9692 33.473 19.9692C34.7418 19.9692 35.7741 20.9015 35.7741 22.0473C35.7741 23.1932 34.7418 24.1253 33.473 24.1253Z" fill="#111111"/>
</svg>
