<svg width="40" height="40" viewBox="0 0 52 52" fill="none" xmlns="http://www.w3.org/2000/svg">
<rect width="51.6244" height="51.5968" fill="black" fill-opacity="0" transform="translate(0 0.193848)"/>
<rect width="36.8679" height="42.1487" fill="black" fill-opacity="0" transform="translate(0 9.64197)"/>
<rect width="36.8679" height="42.1487" fill="black" fill-opacity="0" transform="translate(0 9.64197)"/>
<path d="M35.9999 41.4713H28.1879V34.5917C28.1879 32.2171 26.2447 30.292 23.8478 30.292H18.6398V25.5709L30.4273 17.2294C30.6183 17.0954 30.7466 16.8908 30.7832 16.6618C30.8178 16.4336 30.7583 16.2012 30.6183 16.0169L28.0143 12.5771C27.7337 12.2075 27.2083 12.1239 26.8251 12.3879L17.9281 18.4849C19.5013 15.5484 18.3738 11.9043 15.4098 10.3457C12.4458 8.78706 8.76749 9.90413 7.19434 12.8406C5.92934 15.2017 6.38754 18.1064 8.31928 19.9726H7.35579C7.11091 19.9732 6.87752 20.0762 6.71347 20.2564L1.10617 26.4308C-0.433339 28.1349 -0.357063 30.7347 1.27977 32.3473L5.87151 36.9222C6.05194 37.1012 6.3028 37.1924 6.55723 37.1716C6.81492 37.1519 7.05036 37.0196 7.19955 36.8104L8.2238 35.3743V50.9308C8.2238 51.4057 8.61244 51.7907 9.0918 51.7907H14.2998C14.7792 51.7907 15.1678 51.4057 15.1678 50.9308V37.1716H21.2438V41.4713H18.6398C18.1605 41.4713 17.7718 41.8564 17.7718 42.3313V50.9308C17.7718 51.4057 18.1605 51.7907 18.6398 51.7907H35.9999C36.4792 51.7907 36.8679 51.4057 36.8679 50.9308V42.3313C36.8679 41.8564 36.4793 41.4713 35.9999 41.4713ZM8.2238 15.6729C8.2238 13.2982 10.1669 11.3731 12.5638 11.3731C14.9607 11.3731 16.9038 13.2982 16.9038 15.6729C16.9038 18.0475 14.9607 19.9726 12.5638 19.9726C10.1669 19.9726 8.2238 18.0475 8.2238 15.6729ZM14.6297 21.6925L13.4318 24.066L12.234 21.6925H14.6297ZM8.2238 30.9026L6.83499 29.4321L8.2238 28.0561V30.9026ZM14.2998 35.4517C13.8205 35.4517 13.4318 35.8367 13.4318 36.3116V50.0708H9.9598V25.9923C9.95807 25.6451 9.74573 25.333 9.42164 25.2011C9.09842 25.0664 8.72518 25.1377 8.47552 25.3817L5.0035 28.8215C4.67269 29.1559 4.67269 29.691 5.0035 30.0254L7.84187 32.9578L6.37495 34.9873L2.4863 31.152C1.49471 30.1798 1.45261 28.6061 2.39082 27.5832L7.74639 21.6925H10.2896L12.6593 26.3792C12.8779 26.8019 13.4009 26.9691 13.8276 26.7525C13.9896 26.6702 14.1214 26.5397 14.2043 26.3792L16.7129 21.4173L27.1289 14.2712L28.7 16.3436L17.2684 24.4358C17.0408 24.5962 16.9051 24.8555 16.9038 25.1323V31.152C16.9038 31.6269 17.2925 32.0119 17.7718 32.0119H23.8478C25.286 32.0119 26.4519 33.1669 26.4519 34.5917V41.4713H22.9798V36.3116C22.9798 35.8367 22.5912 35.4517 22.1118 35.4517H14.2998ZM35.1319 50.0708H19.5078V43.1912H35.1319V50.0708Z" fill="#111111"/>
<rect width="15.624" height="15.4791" fill="black" fill-opacity="0" transform="translate(36 0.193848)"/>
<rect width="15.624" height="15.4791" fill="black" fill-opacity="0" transform="translate(36 0.193848)"/>
<path d="M50.756 7.07343C47.4003 7.07343 44.68 4.37836 44.68 1.0538C44.68 0.57889 44.2914 0.193848 43.812 0.193848C43.3327 0.193848 42.944 0.57889 42.944 1.0538C42.944 4.37836 40.2237 7.07343 36.868 7.07343C36.3886 7.07343 36 7.45848 36 7.93338C36 8.40829 36.3886 8.79333 36.868 8.79333C40.2237 8.79333 42.944 11.4884 42.944 14.813C42.944 15.2879 43.3327 15.6729 43.812 15.6729C44.2914 15.6729 44.68 15.2879 44.68 14.813C44.68 11.4884 47.4003 8.79333 50.756 8.79333C51.2354 8.79333 51.624 8.40829 51.624 7.93338C51.624 7.45848 51.2355 7.07343 50.756 7.07343ZM43.812 11.27C43.0637 9.84032 41.8873 8.67487 40.4442 7.93338C41.8872 7.19189 43.0636 6.02645 43.812 4.59678C44.5605 6.02645 45.7368 7.19189 47.1799 7.93338C45.7368 8.67487 44.5605 9.84032 43.812 11.27Z" fill="#111111"/>
<rect width="3.39236" height="3.10561" fill="black" fill-opacity="0" transform="translate(26.8057 21.8574)"/>
<rect width="3.39236" height="3.10561" fill="black" fill-opacity="0" transform="translate(26.8057 21.8574)"/>
<path d="M29.1715 21.8574L26.8057 23.576L27.8322 24.963L30.198 23.2443L29.1715 21.8574Z" fill="#111111"/>
<rect width="9.70434" height="7.69502" fill="black" fill-opacity="0" transform="translate(31.1523 14.1183)"/>
<rect width="9.70434" height="7.69502" fill="black" fill-opacity="0" transform="translate(31.1523 14.1183)"/>
<path d="M39.8297 14.1183L31.1523 20.4268L32.1794 21.8133L40.8567 15.5049L39.8297 14.1183Z" fill="#111111"/>
<rect width="6.16987" height="4.87022" fill="black" fill-opacity="0" transform="translate(31.1748 9.79578)"/>
<rect width="6.16987" height="4.87022" fill="black" fill-opacity="0" transform="translate(31.1748 9.79578)"/>
<path d="M36.3817 9.79572L31.1748 13.235L32.1378 14.6659L37.3447 11.2267L36.3817 9.79572Z" fill="#111111"/>
</svg>
