<svg width="56" height="53" viewBox="0 0 56 53" fill="none" xmlns="http://www.w3.org/2000/svg">
<rect width="52" height="49" fill="black" fill-opacity="0" transform="translate(2 2)"/>
<rect x="1" y="1" width="54" height="51" rx="4" stroke="#D3D3D3" stroke-width="2"/>
<path d="M43.5 37.1968C43.5 37.3107 43.4619 37.3963 43.4207 37.4457C43.3808 37.4936 43.3476 37.5 43.3307 37.5H19.3307C19.3214 37.5 19.291 37.4969 19.2511 37.4483C19.2102 37.3986 19.172 37.3119 19.172 37.1968V34.0016C19.172 33.8877 19.21 33.8015 19.2509 33.7517C19.2909 33.7031 19.3213 33.7 19.3307 33.7H43.3307C43.3477 33.7 43.381 33.7065 43.4209 33.7544C43.4622 33.8038 43.5 33.8889 43.5 34.0016V37.1968ZM15.5 37.1968C15.5 37.3107 15.4619 37.3963 15.4207 37.4457C15.3808 37.4936 15.3476 37.5 15.3307 37.5H12.672C12.6526 37.5 12.6188 37.4926 12.5792 37.4452C12.538 37.396 12.5 37.3106 12.5 37.1968V34.0016C12.5 33.889 12.5378 33.8041 12.579 33.7549C12.6186 33.7074 12.6526 33.7 12.672 33.7H15.3307C15.3477 33.7 15.381 33.7065 15.4209 33.7544C15.4622 33.8038 15.5 33.8889 15.5 34.0016V37.1968ZM43.5 27.5984C43.5 27.7122 43.462 27.7971 43.4212 27.846C43.3817 27.8932 43.3485 27.9 43.3307 27.9H19.3307C19.3213 27.9 19.2909 27.8969 19.2509 27.8483C19.21 27.7985 19.172 27.7123 19.172 27.5984V24.3984C19.172 24.2903 19.2089 24.2049 19.2507 24.1542C19.2917 24.1044 19.3226 24.1016 19.3307 24.1016H43.3307C43.3464 24.1016 43.3802 24.1078 43.4212 24.1568C43.4633 24.2073 43.5 24.2916 43.5 24.3984V27.5984ZM15.5 27.5984C15.5 27.7111 15.4622 27.7962 15.4209 27.8456C15.381 27.8935 15.3477 27.9 15.3307 27.9H12.672C12.6526 27.9 12.6186 27.8926 12.579 27.8451C12.5378 27.7959 12.5 27.711 12.5 27.5984V24.3984C12.5 24.2904 12.5369 24.2059 12.579 24.1557C12.6196 24.1071 12.6539 24.1 12.672 24.1H15.3307C15.3464 24.1 15.3802 24.1062 15.4212 24.1552C15.4633 24.2057 15.5 24.29 15.5 24.3968V27.5984ZM43.5 18.0016C43.5 18.1085 43.4632 18.1935 43.4207 18.2445C43.3793 18.2942 43.3456 18.3 43.3307 18.3H19.3307C19.3234 18.3 19.2926 18.2976 19.2511 18.2471C19.2089 18.1958 19.172 18.1098 19.172 18.0016V14.7968C19.172 14.6887 19.2089 14.6033 19.2507 14.5526C19.2917 14.5028 19.3226 14.5 19.3307 14.5H43.3307C43.3464 14.5 43.3802 14.5062 43.4212 14.5552C43.4633 14.6057 43.5 14.69 43.5 14.7968V18.0016ZM15.5 18.0016C15.5 18.1085 15.4632 18.1935 15.4207 18.2445C15.3793 18.2942 15.3456 18.3 15.3307 18.3H12.672C12.6547 18.3 12.6203 18.2932 12.5792 18.244C12.5367 18.1932 12.5 18.1085 12.5 18.0016V14.7968C12.5 14.69 12.5367 14.6059 12.5787 14.5557C12.6195 14.5071 12.6539 14.5 12.672 14.5H15.3307C15.3464 14.5 15.3802 14.5062 15.4212 14.5552C15.4633 14.6057 15.5 14.69 15.5 14.7968V18.0016Z" stroke="#1B264B"/>
</svg>
