<svg width="600" height="437" viewBox="0 0 765 597" fill="none" xmlns="http://www.w3.org/2000/svg">
<rect width="684.462" height="467.849" fill="black" fill-opacity="0" transform="translate(94.4875) rotate(11.6517)"/>
<path d="M441.599 310.855L442.533 312.747L453.147 312.972L458.767 314.727L462.522 318.459L462.584 321.695L460.828 330.958L458.415 336.773L458.202 338.341L459.742 340.933L489.199 348.905L491.012 353.385L490.521 358.119L491.549 360.626L497.328 366.962L500.073 367.991L501.797 371.194L498.923 378.814L497.59 386.884L498.469 397.286L499.281 401.162L502.028 406.144L502.524 411.875L500.725 414.175L493.816 411.073L489.261 404.372L484.25 401.484L479.34 395.748L479.034 391.027L477.156 387.394L470.355 383.983L465.17 383.223L464.18 385.027L463.769 392.691L457.647 402.687L458.128 403.78L462.919 404.415L460.372 409.276L458.433 410.863L445.63 407.869L442.873 409.464L442.398 411.022L443.816 415.597L438.717 427.372L437.606 432.44L437.916 438.001L434.177 443.61L427.994 446.618L427.848 448.287L426.574 449.438L426.398 452.646L427.354 454.323L426.886 456.809L424.76 459.947L427.078 467.864L426.546 471.838L422.331 467.018L416.722 462.748L412.723 462.873L406.311 458.858L400.352 457.894L397.722 458.764L390.842 458.626L387.149 457.268L384.694 453.649L383.926 451.063L384.745 448.803L389.261 441.567L398.392 433.891L405.282 426.062L406.39 420.153L405.744 416.223L404.622 415.882L415.64 395.526L421.776 388.248L426.363 385.485L430.189 379.563L432.466 378.046L434.255 373.978L434.999 366.515L436.487 362.296L434.355 356.47L437.296 355.377L440.19 337.276L439.784 334.212L438.215 330.688L427.686 324.587L424.169 320.131L427.827 315.984L431.274 313.825L441.599 310.855Z" fill="#F85359"/>
<path d="M425.897 514.377L425.892 514.398L425.859 514.347L425.897 514.377ZM442.23 516.2L444.065 517.682L446.096 517.681L448.02 517.769L448.597 518.506L440.689 518.531L439.91 517.068L442.23 516.2ZM530.876 517.791L531.827 522.6L529.86 524.005L527.498 524.004L527.574 521.282L528.803 521.315L529.937 519.562L530.876 517.791ZM426.546 471.839L427.1 467.869L424.777 459.973L426.907 456.814L427.376 454.328L426.419 452.651L426.595 449.442L427.874 448.271L428.02 446.601L434.202 443.594L437.962 437.989L437.652 432.429L438.747 427.334L443.846 415.56L442.428 410.984L442.903 409.427L445.66 407.832L458.484 410.83L460.423 409.243L462.97 404.381L458.179 403.747L457.698 402.654L463.821 392.658L464.231 384.994L465.243 383.194L470.427 383.954L477.229 387.365L479.106 390.998L479.413 395.719L484.301 401.451L489.312 404.339L493.867 411.04L492.024 410.88L488.519 415.566L489.135 419.645L490.778 420.668L491.583 425.116L501.926 426.013L511.258 433.854L511.188 438.475L507.232 451.126L508.444 462.7L513.519 474.586L519.051 481.908L525.142 492.722L531.685 500.275L532.493 502.671L530.64 507.057L532.12 508.334L531.092 513.641L529.837 514.375L529.261 512.778L528.86 513.975L530.869 516.972L528.812 520.522L527.163 520.601L526.925 522.826L524.242 524.811L524.676 525.276L521.413 529.857L510.615 526.24L498.493 523.585L475.577 520.074L449.331 518.37L448.431 517.169L444.42 517.137L442.661 515.715L440.64 516.093L438.668 515.487L438.613 515.542L439.318 517.476L439.702 518.504L432.096 519.85L430.764 515.822L428.57 513.935L426.832 513.157L425.263 510.493L426.465 508.732L426.326 508.439L424.986 509.266L424.093 508.243L423.313 505.5L423.677 504.162L424.896 503.707L425.655 493.819L429.552 485.196L429.223 480.051L426.546 471.839Z" fill="#B2FE40"/>
<path d="M319.081 479.082L318.907 477.678L317.424 477.593L310.175 470.358L309.547 460.559L307.442 455.997L303.237 455.086L288.281 457.609L286.193 456.605L286.299 452.344L287.826 449.436L281.447 444.941L280.75 442.965L282.794 433.806L287.982 428.982L290.487 424.973L291.105 422.297L288.304 422.072L286.866 420.054L291.62 411.233L304.55 396.592L310.341 398.161L311.723 397.342L314.399 392.397L318.004 391.397L318.307 387.464L322.12 385.888L324.777 383.169L325.561 379.048L324.9 375.512L323.544 373.952L319.841 371.356L313.403 371.11L311.323 370.063L311.875 375.629L308.963 376.905L297.251 379.325L290.054 376.869L284.039 376.711L277.993 384.515L273.298 384.695L271.888 383.079L268.81 382.268L267.633 384.123L267.175 389.127L260.502 391.195L256.828 391.674L250.56 389.851L247.087 393.528L241.925 393.833L238.216 391.589L236.845 387.641L232.936 384.01L231.13 384.741L226.656 390.596L218.953 392.627L213.589 390.594L195.962 396.01L194.134 394.816L189.047 394.651L187.41 391.885L182.413 387.322L176.266 384.487L170.851 379.706L167.322 374.342L165.822 375.622L164.546 374.101L161.287 374.599L160.743 373.383L156.925 374.45L159.909 385.242L161.416 398.379L160.351 399.903L161.699 403.537L161.628 407.628L167.267 423.736L167.041 426.868L168.791 428.443L168.738 428.808L168.363 431.159L179.71 456.413L181.959 458.245L181.589 459.825L186.864 463.893L186.114 464.643L188.009 466.69L187.979 468.119L192.705 472.603L193.278 471.86L193.786 472.715L193.215 473.128L193.109 473.856L197.692 479.57L198.717 479.737L198.757 478.045L197.896 477.404L201.442 477.12L199.527 478.27L199.911 479.939L199.243 480.397L199.168 481.508L203.338 486.12L213.042 493.331L214.317 489.179L212.868 487.754L212.249 484.867L212.916 485.27L213.142 487.281L214.718 488.092L214.77 486.557L215.625 486.8L215.277 488.273L216.304 488.86L216.518 490.604L214.69 492.832L215.053 493.856L213.765 496.461L214.485 497.249L224.876 502.306L226.252 497.667L227.882 496.722L227.009 505.02L244.973 507.179L244.666 501.817L248.178 495.808L250.035 493.763L250.019 490.735L246.477 487.466L247.515 487.57L249.917 488.661L251.26 492.426L253.023 490.295L252.204 488.382L253.329 483.89L252.14 480.665L253.119 479.233L253.03 481.488L254.25 482.954L254.148 483.772L254.833 488.372L253.267 494.893L260.105 490.85L259.152 489.263L260.211 485.199L264.516 484.762L265.85 483.647L266.608 487.357L266.299 490.141L264.833 492.112L265.527 495.17L264.93 498.6L267.653 499.736L269.28 503.405L270.319 503.509L269.772 504.125L270.05 505.131L274.854 505.062L275.108 505.865L273.511 506.971L276.406 509.312L294.715 511.078L294.967 510.071L294.343 508.816L294.531 507.155L294.467 506.391L296.262 504.863L297.785 503.897L295.793 507.989L296.089 508.911L299.618 513.524L302.079 511.868L309.719 512.605L309.738 507.156L309.714 506.312L309.403 503.754L307.295 501.663L307.325 499.484L307.451 499.091L308.528 496.973L308.388 491.977L307.76 490.633L308.658 490.024L309.874 492.261L310.687 501.7L311.745 500.638L312.652 489.28L317.732 482.844L319.081 479.082ZM161.778 403.796L161.795 403.821L161.778 403.796ZM271.408 509.142L253.572 507.649L247.688 506.215L247.528 504.637L251.507 499.895L251.834 499.918L252.769 500.199L253.633 497.507L258.781 493.734L259.171 493.13L260.47 491.433L261.506 491.228L260.593 489.34L260.779 486.508L262.097 486.007L264.36 486.055L265.681 489.285L264.041 491.883L264.985 495.654L263.834 498.882L267.093 500.526L268.067 502.758L271.408 509.142Z" fill="#63C856"/>
<path d="M580.973 250.124L587.518 250.392L593.37 247.272L597.014 244.16L601.275 244.045L605.344 246.363L613.413 248.336L620.403 247.945L627.889 245.251L628.224 235.386L631.966 233.508L636.726 233.011L641.874 232.77L646.311 233.839L657.07 239.789L673.013 254.953L673.483 258.67L670.003 268.483L672.176 270.895L681.257 273.739L702.497 273.175L708.943 274.989L711.784 277.165L720.99 291.712L728.427 307.882L729.126 311.448L720.89 328.161L710.952 321.232L708.497 324.788L707.59 328.972L706.043 330.265L703.346 331.783L695.296 340.852L688.046 341.432L684.076 343.241L681.02 345.215L677.917 350.094L675.397 351.716L653.542 364.362L644.283 368.479L641.768 368.689L637.291 372.843L633.333 373.948L629.935 376.514L630.406 378.51L632.832 381.306L629.962 383.981L630.447 385.913L629.075 387.75L625.146 391.068L624.192 389.591L623.643 392.789L631.978 406.958L631.866 410.82L625.016 418.349L622.613 423.151L619.648 425.542L618.394 433.871L611.995 445.531L609.448 459.488L602.236 467.272L597.898 468.078L597.362 469.821L594.071 471.439L590.047 477.894L586.946 479.55L588.554 482.134L586.496 482.482L583.88 484.68L583.737 485.908L581.432 486.272L580.854 490.038L576.356 490.766L573.651 492.968L573.189 494.992L575.232 497.93L575.284 501.318L569.523 503.353L567.32 502.369L566.194 500.547L563.655 501.834L561.637 504.773L559.817 505.568L558.837 508.611L560.225 509.052L562.259 505.608L561.714 511.037L560.707 512.065L560.089 510.459L558.758 510.493L559.357 513.796L556.105 513.721L555.901 515.357L552.005 515.194L549.155 513.281L551.008 509.756L553.325 509.969L551.34 506.005L549.113 508.24L546.447 508.749L542.266 506.872L541.392 504.153L543.328 503.007L543.842 502.76L543.583 500.697L540.525 500.972L538.407 499.144L532.416 502.721L531.608 500.325L525.065 492.773L518.957 481.932L513.447 474.615L508.371 462.729L507.16 451.155L511.115 438.504L511.206 433.887L501.875 426.047L491.531 425.15L490.706 420.697L489.084 419.678L488.468 415.6L491.973 410.914L493.816 411.073L500.725 414.176L502.524 411.875L502.028 406.144L499.281 401.162L498.469 397.286L497.59 386.884L498.923 378.814L501.797 371.195L500.073 367.992L501.921 363.097L508.234 357.533L508.633 351.743L512.274 349.713L513.584 347.002L518.776 343.018L520.002 337.928L518.374 333.619L519.204 331.627L524.482 330.331L530.108 331.094L533.838 341.797L537.584 337.978L542.493 337.29L547.898 334.63L549.062 331.978L553.169 332.185L557.235 335.805L559.411 334.244L561.855 329.671L563.197 324.23L565.533 321.467L583.848 306.722L584.501 303.766L581.699 297.449L582.376 294.056L586.581 291.325L591.38 291.498L593.879 288.261L593.83 285.932L591.344 283.212L591.131 279.857L590.192 278.847L591.251 274.782L589.03 271.852L588.718 268.013L583.818 262.874L580.749 256.457L580.973 250.124Z" fill="#188E9B"/>
<path d="M365.067 269.245L365.117 253.163L365.884 250.297L363.985 247.41L363.654 226.216L358.783 229.715L350.268 227.12L342.018 227.207L322.442 234.473L305.526 237.828L295.016 245.661L293.639 245.487L289.897 236.018L287.942 234.688L284.542 233.302L280.083 235.871L277.312 239.781L275.96 244.734L276.479 246.496L279.217 248.849L278.255 259.291L280.986 267.779L284.079 273.759L287.422 277.672L291.789 280.36L291.639 284.193L288.742 290.748L284.627 294.116L280.451 296.919L273.043 299.873L266.854 305.374L260.1 308.374L256.005 308.854L244.478 308.773L240.213 306.657L242.481 303.151L239.796 299.044L245.875 291.401L245.243 289.438L237.99 282.755L234.992 275.889L226.248 268.302L220.082 264.271L217.195 260.718L205.547 262.4L200.591 266.632L197.018 265.012L193.077 259.828L190.282 258.612L183.277 258.646L177.282 255.821L175.051 256.045L173.586 256.405L173.009 258.56L174.208 262.273L172.644 264.291L162.558 269.319L159.013 268.742L159.985 263.49L159.701 257.802L162.463 251.904L162.77 248.81L159.984 244.549L149.71 236.25L127.792 268.684L131.086 279.253L133.645 281.724L135.572 278.589L138.891 276.514L157.163 270.966L159.927 271.05L164.403 269.148L167.031 268.497L167.571 269.735L167.454 270.086L162.805 271.224L159.968 274.171L159.706 274.691L158.18 273.207L152.989 274.299L145.16 278.226L144.112 279.666L140.117 277.848L137.536 279.126L134.492 285.43L134.37 288.805L137.973 299.482L143.335 307.519L145.938 306.886L152.896 305.363L159.005 307.528L161.952 301.159L165.325 297.109L165.449 296.295L166.427 295.835L166.422 295.856L167.174 296.276L166.626 296.472L165.289 300.39L161.926 304.708L163.113 309.655L166.882 311.823L170.451 311.963L175.185 305.919L178.529 306.829L179.04 306.383L179.036 306.404L184.694 310.97L186.773 312.878L186.965 313.978L184.594 312.738L184.83 314.486L184.465 317.325L181.802 316.003L184.148 315.008L184.035 312.027L181.978 310.013L175.477 308.032L174.146 308.067L173.625 311.558L171.967 313.71L166.152 316.86L168.959 313.951L165.104 313.487L160.898 311.406L151.79 308.049L147.557 307.595L146.936 309.322L143.035 310.901L139.638 313.887L143.774 323.482L149.07 330.336L160.71 338.542L171.36 341.378L171.686 340.011L169.774 336.548L169.029 329.992L168.675 328.926L169.146 327.39L170.193 327.341L169.433 328.994L170.59 334.089L172.609 333.181L173.371 333.338L173.127 333.773L170.644 335.646L170.976 336.818L176.098 340.346L177.396 340.151L182.986 330.707L185.402 327.982L187.705 327.088L186.494 326.11L193.217 327.761L194.168 328.289L196.591 327.773L198.059 325.581L199.791 325.099L202.089 325.948L203.703 328.29L205.282 327.159L205.372 327.685L204.791 329.221L202.889 328.917L200.378 326.324L197.506 329.441L193.816 330.424L190.036 329.379L190.126 331.296L188.521 328.802L185.569 328.988L183.086 335.143L183.082 338.056L183.838 340.596L184.476 342.317L191.114 346.092L190.13 347.655L187.337 344.607L185.804 345.085L185.435 346.554L185.19 346.99L184.096 347.051L185.415 344.078L184.812 343.689L184.05 342.781L183.298 341.61L182.135 342.43L180.35 343.166L179.357 344.131L177.632 344.04L175.011 344.758L176.737 346.13L181.121 346.813L174.414 347.549L173.292 348.708L171.878 344.863L170.586 344.707L170.001 344.542L164.579 343.755L161.827 344.578L161.849 343.722L160.419 343.272L159.686 342.437L158.172 342.61L156.602 341.337L155.642 346.526L156.355 363.516L155.122 366.927L158.539 372.62L163.263 371.652L168.948 372.449L167.653 369.202L167.952 366.791L168.374 366.348L170.472 361.527L171.099 361.59L170.52 362.795L170.658 363.729L168.383 369.198L170.006 370.746L169.126 373.943L167.297 374.25L170.826 379.613L176.241 384.395L182.388 387.23L187.385 391.792L189.022 394.558L194.109 394.724L195.937 395.918L213.564 390.502L218.928 392.535L226.631 390.503L231.105 384.648L232.912 383.917L236.82 387.549L238.191 391.496L241.9 393.74L247.062 393.436L250.535 389.759L256.803 391.581L260.477 391.103L267.15 389.035L267.608 384.03L268.785 382.175L271.863 382.987L273.273 384.602L277.968 384.422L284.014 376.618L290.029 376.777L297.226 379.232L308.938 376.813L311.85 375.537L311.298 369.97L310.545 367.519L311.182 366.679L319.425 364.383L322.141 353.243L324.27 350.415L329.23 348.303L331.879 344.986L335.003 338.61L334.241 330.639L334.881 329.998L337.53 327.961L343.298 320.541L345.167 315.121L350.941 305.958L358.221 297.415L361.65 284.855L365.932 277.68L365.067 269.245Z" fill="#3A65F5"/>
<path d="M308.581 71.1243L309.932 72.8157L313.799 72.7962L315.124 73.8642L315.42 75.4263L314.227 77.145L314.917 78.7222L319.641 79.1446L319.864 80.9565L317.023 84.4548L315.694 88.4411L315.828 90.7868L317.774 92.91L322.052 94.9622L335.908 91.3513L338.294 96.4791L339.701 96.6147L341.753 100.15L342.943 100.264L346.119 105.841L350.987 106.426L352.777 105.669L358.131 107.104L359.498 111.823L359.113 114.437L360.647 116.1L360.903 119.994L362.225 121.503L361.495 122.478L362.18 126.218L370.487 126.076L371.231 127.069L374.755 125.61L378.893 125.558L381.982 129.308L382.221 134.037L384.819 136.957L385.614 141.558L384.443 148.844L382.948 152.774L377.798 160.41L376.109 169.245L369.96 178.618L363.837 185.192L365.608 190.303L361.228 201.586L361.978 207.48L364.085 212.352L363.633 225.57L363.654 226.215L358.788 229.693L350.294 227.102L342.043 227.189L322.472 234.434L305.556 237.789L295.046 245.622L293.652 245.423L289.91 235.953L287.951 234.644L284.576 233.242L280.092 235.827L277.326 239.716L275.973 244.669L276.492 246.432L279.23 248.784L278.269 259.226L281.003 267.693L284.096 273.674L287.439 277.586L291.807 280.275L291.64 284.081L288.764 290.641L284.649 294.009L280.494 296.816L273.086 299.77L266.876 305.267L260.143 308.271L256.048 308.752L244.5 308.666L240.239 306.529L242.507 303.023L239.823 298.915L245.88 291.268L245.248 289.305L238.017 282.627L235.018 275.761L226.253 268.17L220.109 264.143L217.222 260.59L205.574 262.272L200.617 266.504L197.045 264.884L193.103 259.7L190.308 258.484L183.304 258.518L177.33 255.697L175.098 255.921L173.612 256.277L173.036 258.432L174.234 262.145L172.671 264.162L162.601 269.216L159.056 268.64L160.028 263.388L159.744 257.7L162.527 251.806L162.834 248.712L160.048 244.451L149.77 236.172L151.102 233.886L149.485 228.564L147.123 225.781L143.86 224.909L141.65 217.963L138.136 214.237L136.681 213.804L136.146 211.685L136.933 210.545L136.148 211.354L138.148 210.221L141.765 202.954L143.26 201.915L149.885 201.361L153.297 193.808L157.728 190.947L160.362 187.163L161.854 183.674L161.28 180.355L159.312 174.916L156.987 173.024L158.227 167.01L160.37 165.288L161.128 160.544L162.584 158.725L166.997 156.059L168.399 154.074L172.412 153.135L175.075 148.673L177.409 147.631L178.451 143.542L179.745 142.086L184.843 140.908L189.178 142.685L194.172 142.876L197.571 144.372L211.582 147.504L218.713 148.135L222.037 149.571L224.813 154.736L219.571 158.644L221.633 171.122L223.212 171.382L232.574 166.336L235.359 167.175L237.232 170.829L238.794 171.924L244.914 170.934L249.591 164.415L253.768 154.327L254.407 153.906L256.704 155.506L257.437 152.059L259.527 151.342L259.563 149.561L257.623 146.335L260.941 136.777L264.291 133.803L267.828 132.921L268.983 131.282L268.672 129.364L278.519 116.185L278.809 113.176L280.258 111.179L284.783 108.072L289.794 106.787L294.367 99.9157L293.579 99.135L293.032 93.5475L296.135 87.8077L292.238 85.1937L291.758 83.2404L292.746 80.3757L296.482 77.3492L299.724 78.3267L301.87 77.4447L308.581 71.1243Z" fill="#F7981C"/>
<path d="M424.169 320.13L427.686 324.586L438.215 330.687L439.784 334.211L440.19 337.275L437.296 355.376L434.355 356.47L436.487 362.296L434.999 366.515L434.255 373.977L432.467 378.046L430.189 379.563L426.364 385.485L421.777 388.248L415.641 395.525L404.623 415.881L398.766 416.77L389.69 412.404L385.163 411.559L375.914 411.992L366.468 407.594L352.179 404.956L347.828 403.154L343.975 398.717L341.818 390.766L338.49 387.21L338.538 384.196L342.05 378.827L345.173 369.25L344.945 365.539L340.793 362.983L333.175 362.891L330.17 361.3L341.708 334.782L346.495 333.937L354.52 327.137L358.299 326.15L367.009 332.185L372.801 332.783L379.832 324.056L383.351 316.945L387.574 315.52L401.44 315.819L412.285 320.814L424.169 320.13Z" fill="#3A425B"/>
<path d="M285.099 41.2488L295.264 41.4024L300.391 43.4088L297.08 51.8653L300.22 58.4732L308.435 69.3727L308.581 71.1248L301.87 77.4453L299.703 78.3228L296.461 77.3453L292.725 80.3718L291.741 83.2154L292.221 85.1688L296.14 87.787L293.015 93.5224L293.558 99.1312L294.325 99.9075L289.751 106.779L284.741 108.064L280.215 111.17L278.766 113.167L278.477 116.176L268.63 129.356L268.945 131.253L267.79 132.891L264.274 133.778L260.92 136.773L257.585 146.306L259.525 149.532L259.505 151.338L257.42 152.034L256.687 155.481L254.39 153.881L253.751 154.302L249.574 164.39L244.897 170.909L238.773 171.92L237.215 170.804L235.342 167.15L232.557 166.311L223.196 171.357L221.616 171.097L219.554 158.619L224.792 154.732L222.02 149.546L218.697 148.11L211.561 147.5L197.55 144.368L194.151 142.872L189.157 142.681L184.839 140.93L179.74 142.108L178.426 143.559L177.379 147.67L175.071 148.695L172.407 153.157L168.395 154.096L166.988 156.101L162.559 158.742L161.102 160.561L160.323 165.301L158.197 167.048L156.957 173.062L159.282 174.954L161.229 180.389L161.824 183.713L160.311 187.198L157.698 190.986L153.267 193.847L149.834 201.395L143.234 201.933L141.735 202.992L138.122 210.239L136.123 211.372L136.908 210.562L136.116 211.723L136.651 213.842L138.111 214.254L141.624 217.981L143.834 224.927L147.093 225.819L149.455 228.602L151.094 233.929L149.761 236.215L127.843 268.65L120.147 253.95L104.767 230.381L78.6116 198.585L73.62 193.891L81.9666 196.23L84.4793 192.929L84.5019 190.572L78.2749 185.447L72.2586 184.758L70.3715 183.42L73.7557 181.137L78.8807 181.973L81.5278 181.018L83.677 178.945L89.1312 178.612L91.4504 175.073L91.2307 167.147L93.2038 157.686L92.1893 155.755L88.2191 156.062L83.7345 160.148L80.2652 161.773L76.3339 161.249L66.5249 157.438L63.1251 152.41L64.5505 145.177L73.0082 136.059L82.126 130.699L86.9067 129.565L92.7992 126.145L96.4837 119.73L100.456 108.386L106.729 106.544L113.452 96.959L124.037 91.5477L128.957 92.5183L133.73 96.2399L138.922 102.211L142.741 103.065L144.646 100.676L144.871 97.1244L146.66 92.8354L147.424 84.207L153.583 71.0395L155.61 70.1993L168.712 69.3909L168.447 64.0382L178.713 62.9543L194.998 67.2616L209.89 69.6482L212.94 71.4472L214.982 76.7469L215.77 83.9514L215.055 85.7026L216.189 91.8746L220.758 94.1194L233.995 89.1225L242.366 81.0692L247.698 73.5151L254.834 57.1055L258.161 53.0674L264.325 48.8637L269.574 46.7452L272.273 42.7542L276.377 42.7616L279.011 46.0422L280.879 45.765L285.099 41.2488Z" fill="#3A65F5"/>
<path d="M372.891 501.791L369.193 504.097L368.899 505.736L367.691 504.957L368.777 502.046L372.184 500.939L372.891 501.791ZM367.046 496.524L363.833 493.698L362.603 493.775L361.373 493.853L361.229 492.3L363.395 491.002L363.031 489.448L363.972 488.207L364.282 485.953L363.429 483.989L361.576 483.232L361.041 483.475L360.28 479.565L359.782 479.087L360.28 478.174L358.834 475.978L358.105 476.622L356.007 476.521L355.247 478.174L356.004 480.604L356.604 483.046L356.582 487.544L355.666 486.848L354.438 487.985L355.184 495.821L354.333 498.45L355.046 507.515L354.442 507.876L355.871 509.186L360.42 509.175L361.464 508.397L361.992 507.226L365.483 509.027L366.521 504.318L368.62 501.307L367.046 496.524ZM363.481 473.139L364.148 474.292L368.724 475.434L369.524 473.59L368.791 472.755L365.082 472.652L363.481 473.139ZM367.244 468.484L367.513 471.034L368.531 471.664L368.747 467.514L367.244 468.484ZM378.235 492.252L376.435 485.568L374.624 483.649L371.526 481.222L371.007 480.85L368.945 481.86L370.282 482.334L372.562 485.299L372.766 485.804L372.079 486.678L372.773 488.874L372.189 492.992L374.396 496.097L376.249 496.854L378.283 494.161L378.235 492.252ZM388.097 507.796L384.837 501.34L381.352 504.22L382.679 506.238L384.499 506.083L384.906 508.176L386.515 508.508L386.71 509.917L389.406 509.369L391.221 512.127L395.81 509.784L394.737 508.349L388.097 507.796ZM348.829 485.107L346.226 485.74L345.057 488.413L347.296 489.758L349.873 492.673L351.058 497.951L351.912 490.709L351.215 490.235L352.416 487.193L348.829 485.107ZM386.097 498.443L381.786 493.978L379.531 488.325L379.585 487.74L379.311 483.931L378.107 484.632L377.417 483.695L378.62 482.464L379.207 479.296L378.984 479.095L376.969 482.764L372.511 480.299L371.433 479.856L370.041 477.185L370.557 473.936L369.921 473.164L369.974 472.16L369.497 471.686L369.464 470.245L370.867 468.79L369.325 465.779L367.379 466.547L366.27 468.283L366.974 471.828L362.276 472.559L361.251 473.143L359.116 473.541L357.993 473.42L355.54 474.614L354.295 475.726L354.764 472.489L353.213 473.803L352.524 474.787L353.921 478.717L354.016 484.145L351.046 484.526L349.832 484.74L347.613 480.728L346.939 476.395L344.922 470.658L341.969 468.924L343.831 465.886L343.361 460.888L345.789 459.601L346.74 458.737L345.91 457.087L342.183 455.789L338.835 452.648L337.548 455.893L335.415 456.711L335.053 454.936L332.425 454.086L331.854 453.217L330.416 453.34L328.772 453.067L327.839 450.954L327.498 450.575L326.155 451.203L326.125 453.382L325.684 454.02L326.523 454.877L328.657 458.121L327.735 461.308L327.784 471.562L333.156 479.976L332.683 482.484L328.213 484.785L327.748 485.97L328.737 500.655L328.452 507.925L332.472 514.229L331.714 514.801L316.084 513.101L311.668 510.535L312.661 504.757L313.262 499.274L313.759 498.361L313.77 497.988L313.98 492.049L313.905 490.378L319.615 483.454L320.378 477.717L318.894 477.742L317.411 477.657L310.162 470.422L309.534 460.624L307.429 456.061L303.224 455.15L288.268 457.673L286.18 456.669L286.286 452.408L287.813 449.5L281.433 445.005L280.737 443.03L282.781 433.87L287.969 429.046L290.473 425.037L291.091 422.361L288.29 422.136L286.852 420.118L291.607 411.297L304.537 396.656L310.327 398.225L311.71 397.407L314.385 392.461L317.991 391.461L318.294 387.528L322.107 385.952L324.764 383.233L325.548 379.112L324.886 375.576L323.531 374.016L319.828 371.42L313.389 371.174L311.31 370.127L310.557 367.676L311.194 366.836L319.437 364.54L322.153 353.4L324.282 350.572L329.242 348.46L331.89 345.143L335.015 338.767L334.253 330.795L334.893 330.155L336.684 333.35L341.674 334.842L330.14 361.339L333.145 362.93L340.784 363.026L344.932 365.603L345.139 369.31L342.021 378.866L338.508 384.235L338.46 387.249L341.788 390.805L343.941 398.777L347.793 403.214L352.145 405.016L366.434 407.654L375.896 412.077L385.15 411.623L389.673 412.49L398.728 416.852L404.584 415.962L405.727 416.308L406.373 420.238L405.286 426.151L398.375 433.976L389.265 441.656L384.744 448.914L383.929 451.152L384.715 453.764L387.169 457.383L390.862 458.741L397.747 458.858L400.377 457.987L406.336 458.951L412.748 462.967L416.763 462.868L422.377 467.116L426.571 471.932L429.175 480.174L429.505 485.319L425.608 493.942L424.849 503.829L423.629 504.284L423.265 505.622L424.046 508.366L421.127 509.464L419.663 507.572L419.731 505.423L417.265 504.319L416.215 503.528L415.463 504.388L412.005 506.28L410.882 505.519L410.488 504.643L409.693 504.435L408.019 504.951L405.874 499.298L402.766 500.777L400.954 499.608L397.785 497.851L396.858 495.386L395.357 495.496L394.166 493.352L392.63 494.161L391.883 495.751L389.854 496.061L390.103 498.497L390.225 500.795L390.471 502.171L391.86 503.782L393.595 503.61L394.767 504.028L396.723 503.747L395.599 507.379L391.778 506.966L388.497 507.459L387.455 504.595L387.387 503.853L385.675 500.917L385.768 498.861L386.097 498.443ZM429.777 516.965L428.487 515.838L427.589 515.587L425.884 514.44L425.85 514.389L425.16 513.452L424.07 514.243L423.449 513.828L424.426 512.837L423.214 509.298L421.077 510.027L419.268 507.668L418.654 506.79L418.517 505.636L415.57 505.051L414.897 505.53L411.913 506.835L409.119 506.149L408.127 506.033L407.317 505.358L406.258 503.749L405.272 502.861L405.435 501.106L402.661 501.285L400.471 500.878L400.697 499.997L398.199 498.731L396.473 497.36L393.676 496.584L392.555 496.883L391.814 498.011L391.427 499.675L395.069 500.426L395.224 500.634L397.234 503.411L397.429 504.93L397.593 507.988L399.236 509.011L399.749 508.234L400.347 508.976L402.599 509.506L402.63 509.998L398.411 510.762L397.435 510.892L394.926 515.673L406.171 519.691L415.423 519.568L428.04 521.861L428.17 519.194L429.777 516.965ZM334.601 457.448L336.348 457.433L338.641 456.162L339.299 453.825L341.637 456.294L344.75 458.327L342.206 460.385L342.309 464.49L342.741 465.286L342.424 466.501L340.743 468.229L340.93 469.681L342.933 470.778L345.011 474.187L347.49 484.323L345.254 485.209L343.998 486.804L343.919 488.796L349.78 494.089L349.784 500.492L351.071 503.671L350.21 506.562L350.523 510.181L353.163 513.22L350.185 515.674L347.995 516.017L346.393 514.583L344.943 515.189L332.042 509.46L331.436 503.728L332.829 502.647L331.55 502.427L330.369 493.596L329.484 489.219L330.595 484.901L334.728 482.309L334.957 479.376L331.85 475.071L328.774 471.898L328.938 462.969L328.577 461.614L329.414 457.769L328.255 455.146L331.204 454.121L332.792 455.839L334.21 456.131L334.601 457.448Z" fill="#6DD7C7"/>
<path d="M558.22 381.245C557.712 381.647 557.456 382.142 557.449 382.732C557.443 383.321 557.691 383.932 558.191 384.565C558.715 385.228 559.251 385.619 559.798 385.739C560.348 385.856 560.887 385.706 561.417 385.287C561.646 385.106 561.85 384.908 562.029 384.694C562.206 384.478 562.382 384.243 562.557 383.988L563.156 384.745C562.859 385.24 562.442 385.7 561.906 386.125C561.115 386.751 560.319 386.992 559.518 386.849C558.714 386.704 557.96 386.186 557.255 385.294C556.81 384.733 556.524 384.161 556.395 383.578C556.269 382.993 556.312 382.435 556.523 381.903C556.735 381.371 557.103 380.897 557.628 380.482C558.18 380.046 558.781 379.758 559.432 379.619L559.696 380.606C559.445 380.664 559.193 380.742 558.938 380.839C558.683 380.933 558.444 381.068 558.22 381.245ZM563.292 378.145C563.467 378.007 563.621 377.905 563.754 377.84L564.309 378.716C564.162 378.784 564.022 378.871 563.889 378.976C563.542 379.251 563.35 379.587 563.312 379.985C563.277 380.381 563.403 380.76 563.689 381.122L565.378 383.257L564.51 383.944L561.278 379.858L561.958 379.321L562.642 379.95L562.687 379.915C562.629 379.564 562.652 379.232 562.756 378.917C562.862 378.601 563.041 378.344 563.292 378.145ZM569.929 376.323C570.457 376.991 570.698 377.647 570.652 378.292C570.605 378.938 570.277 379.502 569.666 379.985C569.285 380.287 568.879 380.468 568.45 380.527C568.02 380.587 567.599 380.517 567.186 380.319C566.773 380.122 566.398 379.81 566.061 379.383C565.537 378.721 565.298 378.069 565.344 377.429C565.39 376.788 565.721 376.223 566.34 375.734C566.931 375.266 567.549 375.087 568.196 375.196C568.841 375.302 569.419 375.678 569.929 376.323ZM566.955 378.676C567.702 379.619 568.423 379.815 569.12 379.264C569.809 378.718 569.781 377.974 569.035 377.031C568.297 376.097 567.58 375.905 566.886 376.455C566.521 376.743 566.352 377.073 566.378 377.445C566.406 377.815 566.599 378.225 566.955 378.676ZM574.527 374.127C574.843 374.526 574.94 374.947 574.819 375.392C574.696 375.833 574.364 376.268 573.822 376.697C573.278 377.128 572.775 377.391 572.315 377.487L571.721 376.737C572.377 376.579 572.912 376.336 573.325 376.009C573.86 375.586 573.999 375.213 573.744 374.891C573.662 374.787 573.565 374.724 573.451 374.702C573.337 374.68 573.183 374.685 572.99 374.719C572.796 374.752 572.541 374.817 572.226 374.915C571.611 375.105 571.148 375.175 570.836 375.125C570.527 375.073 570.258 374.902 570.028 374.611C569.751 374.262 569.677 373.88 569.806 373.466C569.935 373.047 570.243 372.646 570.728 372.262C571.208 371.882 571.739 371.62 572.322 371.475L572.558 372.351C571.973 372.518 571.53 372.72 571.23 372.958C570.772 373.32 570.646 373.632 570.853 373.893C570.954 374.021 571.099 374.082 571.287 374.078C571.478 374.071 571.835 373.986 572.36 373.824C572.8 373.687 573.14 373.613 573.378 373.6C573.617 373.588 573.829 373.624 574.016 373.708C574.201 373.79 574.371 373.93 574.527 374.127ZM578.365 371.09C578.681 371.489 578.778 371.911 578.657 372.355C578.534 372.797 578.201 373.232 577.66 373.661C577.115 374.091 576.613 374.354 576.152 374.451L575.559 373.701C576.215 373.542 576.749 373.3 577.163 372.972C577.698 372.549 577.837 372.177 577.582 371.854C577.5 371.751 577.402 371.688 577.289 371.666C577.175 371.643 577.021 371.649 576.827 371.682C576.633 371.715 576.379 371.781 576.064 371.878C575.449 372.068 574.986 372.138 574.674 372.088C574.365 372.037 574.096 371.866 573.866 371.575C573.589 371.225 573.515 370.843 573.644 370.429C573.773 370.01 574.08 369.609 574.566 369.225C575.046 368.845 575.577 368.583 576.159 368.439L576.396 369.315C575.811 369.481 575.368 369.683 575.068 369.921C574.61 370.283 574.484 370.595 574.691 370.856C574.792 370.984 574.937 371.046 575.125 371.041C575.316 371.034 575.673 370.95 576.197 370.787C576.638 370.651 576.978 370.576 577.216 370.564C577.454 370.551 577.667 370.587 577.854 370.672C578.039 370.754 578.209 370.893 578.365 371.09ZM581.185 366.054L581.798 365.569C582.21 365.243 582.447 364.931 582.511 364.632C582.575 364.334 582.488 364.034 582.251 363.733C582.009 363.428 581.736 363.288 581.431 363.313C581.127 363.337 580.773 363.509 580.372 363.826L579.788 364.288L581.185 366.054ZM581.764 366.785L583.47 368.943L582.588 369.641L578.315 364.24L579.841 363.033C580.538 362.482 581.157 362.204 581.698 362.2C582.24 362.196 582.719 362.458 583.136 362.985C583.668 363.657 583.697 364.413 583.224 365.252L586.64 366.435L585.635 367.23L582.636 366.096L581.764 366.785ZM588.354 365.079L587.486 365.766L584.254 361.68L585.122 360.993L588.354 365.079ZM583.346 360.639C583.223 360.484 583.17 360.331 583.188 360.181C583.208 360.029 583.297 359.891 583.454 359.766C583.607 359.645 583.758 359.594 583.908 359.611C584.061 359.627 584.198 359.712 584.321 359.867C584.438 360.015 584.487 360.166 584.469 360.32C584.452 360.47 584.367 360.606 584.214 360.727C584.056 360.851 583.901 360.906 583.749 360.89C583.597 360.87 583.463 360.786 583.346 360.639ZM590.681 363.238L585.897 360.38L586.813 359.655L589.523 361.373C589.982 361.659 590.323 361.913 590.548 362.136L590.577 362.113C590.459 361.918 590.29 361.527 590.07 360.94L589.022 357.907L589.946 357.176L591.619 362.496L590.681 363.238ZM595.792 359.314C595.157 359.816 594.513 360.025 593.862 359.94C593.21 359.851 592.628 359.481 592.113 358.831C591.585 358.164 591.337 357.508 591.367 356.863C591.398 356.218 591.703 355.666 592.285 355.206C592.824 354.779 593.379 354.606 593.951 354.686C594.523 354.766 595.036 355.093 595.49 355.667L595.861 356.136L593.139 358.29C593.465 358.677 593.813 358.897 594.185 358.952C594.554 359.004 594.922 358.885 595.289 358.595C595.531 358.404 595.737 358.204 595.909 357.996C596.081 357.784 596.245 357.53 596.4 357.235L596.958 357.941C596.826 358.209 596.669 358.45 596.485 358.664C596.301 358.877 596.071 359.094 595.792 359.314ZM592.805 355.863C592.529 356.082 592.376 356.344 592.347 356.652C592.321 356.957 592.424 357.29 592.657 357.65L594.511 356.183C594.239 355.85 593.956 355.659 593.662 355.611C593.366 355.561 593.081 355.645 592.805 355.863ZM597.242 351.284C597.416 351.145 597.57 351.044 597.703 350.979L598.258 351.855C598.112 351.923 597.972 352.009 597.839 352.115C597.492 352.389 597.299 352.726 597.262 353.124C597.227 353.52 597.352 353.899 597.639 354.261L599.328 356.396L598.46 357.083L595.228 352.997L595.907 352.46L596.592 353.089L596.636 353.054C596.579 352.703 596.602 352.371 596.706 352.056C596.812 351.74 596.99 351.483 597.242 351.284Z" fill="white"/>
<path d="M441.745 481.769L440.574 480.108L438.035 480.808L437.894 482.831L436.75 483.146L437.396 475.795L438.577 475.47L442.898 481.451L441.745 481.769ZM440.03 479.252L438.909 477.616C438.831 477.507 438.714 477.334 438.561 477.096C438.41 476.858 438.303 476.682 438.24 476.569C438.261 476.964 438.253 477.404 438.218 477.89L438.095 479.785L440.03 479.252ZM444.147 478.253L444.543 477.333L445.614 475.298L446.844 474.958L445.418 477.673L448.356 479.945L447.103 480.291L444.884 478.533L444.431 479.176L444.905 480.897L443.847 481.189L441.899 474.123L442.957 473.832L443.907 477.278L444.12 478.26L444.147 478.253ZM453.473 478.534L452.178 476.37C452.031 476.144 451.73 475.606 451.274 474.758L451.233 474.769C451.283 475.635 451.304 476.253 451.295 476.623L451.271 479.141L450.091 479.467L447.298 474.833L448.388 474.533L449.711 476.831C450.025 477.402 450.272 477.898 450.453 478.317L450.48 478.309C450.449 478.08 450.425 477.815 450.407 477.513C450.391 477.208 450.386 476.978 450.393 476.823L450.427 473.97L451.598 473.647L453.067 476.086C453.153 476.222 453.272 476.433 453.423 476.721C453.577 477.007 453.683 477.234 453.742 477.4L453.778 477.39C453.721 477.005 453.684 476.455 453.666 475.74L453.633 473.086L454.704 472.791L454.672 478.203L453.473 478.534ZM460.284 476.656L459.878 476.015L459.842 476.025C459.684 476.398 459.498 476.674 459.284 476.853C459.068 477.03 458.769 477.171 458.384 477.277C457.891 477.414 457.468 477.387 457.116 477.197C456.767 477.007 456.526 476.668 456.391 476.18C456.248 475.663 456.333 475.219 456.645 474.85C456.957 474.48 457.503 474.175 458.283 473.934L459.143 473.667L459.069 473.399C458.981 473.079 458.839 472.86 458.644 472.745C458.452 472.625 458.198 472.609 457.883 472.696C457.626 472.767 457.39 472.872 457.174 473.013C456.959 473.154 456.757 473.306 456.567 473.469L456.012 472.801C456.245 472.584 456.513 472.394 456.817 472.232C457.12 472.067 457.416 471.945 457.703 471.866C458.342 471.69 458.862 471.696 459.262 471.885C459.666 472.074 459.95 472.466 460.115 473.062L461.047 476.445L460.284 476.656ZM458.495 476.367C458.882 476.261 459.163 476.067 459.337 475.788C459.513 475.505 459.547 475.168 459.439 474.778L459.319 474.342L458.682 474.547C458.184 474.704 457.841 474.89 457.653 475.104C457.467 475.315 457.416 475.575 457.502 475.884C457.563 476.108 457.678 476.264 457.845 476.351C458.012 476.435 458.228 476.441 458.495 476.367ZM465.438 475.234L463.607 468.596L464.693 468.296L466.523 474.935L465.438 475.234ZM469.509 468.61C470.135 468.437 470.685 468.53 471.159 468.888C471.635 469.245 471.986 469.834 472.212 470.654C472.439 471.477 472.439 472.168 472.212 472.726C471.984 473.281 471.555 473.645 470.925 473.819C470.289 473.994 469.733 473.901 469.256 473.541L469.183 473.561L469.152 474.21L468.353 474.43L466.405 467.365L467.472 467.07L467.935 468.751C467.969 468.875 468.014 469.061 468.07 469.31C468.125 469.558 468.159 469.717 468.171 469.785L468.217 469.772C468.418 469.179 468.849 468.792 469.509 468.61ZM469.472 469.558C469.042 469.677 468.767 469.889 468.646 470.196C468.528 470.499 468.547 470.948 468.705 471.543L468.725 471.616C468.894 472.227 469.113 472.644 469.382 472.866C469.651 473.085 470.005 473.134 470.444 473.013C470.823 472.909 471.067 472.68 471.178 472.327C471.293 471.973 471.272 471.513 471.116 470.947C470.801 469.806 470.253 469.343 469.472 469.558ZM478.092 469.032C478.319 469.853 478.285 470.551 477.991 471.127C477.697 471.703 477.175 472.095 476.424 472.302C475.955 472.431 475.511 472.44 475.092 472.327C474.673 472.215 474.313 471.987 474.009 471.644C473.706 471.301 473.483 470.867 473.338 470.344C473.114 469.529 473.147 468.836 473.439 468.264C473.731 467.691 474.257 467.3 475.016 467.091C475.743 466.89 476.383 466.966 476.936 467.319C477.488 467.668 477.874 468.239 478.092 469.032ZM474.437 470.04C474.757 471.2 475.345 471.661 476.202 471.425C477.049 471.191 477.313 470.495 476.994 469.335C476.677 468.188 476.092 467.732 475.239 467.968C474.791 468.091 474.506 468.329 474.385 468.682C474.267 469.034 474.284 469.486 474.437 470.04ZM484.436 469.995L483.364 470.29L482.51 467.193C482.404 466.809 482.253 466.543 482.056 466.395C481.858 466.245 481.605 466.212 481.296 466.297C480.884 466.411 480.619 466.629 480.499 466.952C480.382 467.271 480.409 467.742 480.581 468.365L481.271 470.868L480.204 471.162L478.819 466.14L479.655 465.909L479.986 466.526L480.041 466.511C480.114 466.234 480.264 465.994 480.492 465.791C480.722 465.587 480.996 465.441 481.314 465.354C482.086 465.141 482.67 465.263 483.067 465.721L483.14 465.701C483.219 465.411 483.375 465.16 483.606 464.946C483.837 464.733 484.127 464.578 484.475 464.482C485.074 464.317 485.552 464.348 485.908 464.576C486.267 464.802 486.532 465.226 486.703 465.847L487.605 469.12L486.538 469.415L485.684 466.318C485.578 465.933 485.425 465.668 485.225 465.521C485.027 465.37 484.774 465.338 484.465 465.423C484.051 465.537 483.782 465.751 483.66 466.065C483.54 466.375 483.554 466.798 483.702 467.334L484.436 469.995Z" fill="#1A1D29"/>
<path d="M316.448 434.113L317.202 433.905C317.708 433.766 318.048 433.571 318.223 433.321C318.399 433.07 318.435 432.761 318.334 432.391C318.23 432.016 318.033 431.78 317.743 431.684C317.453 431.589 317.061 431.609 316.567 431.745L315.85 431.943L316.448 434.113ZM316.696 435.012L317.427 437.664L316.342 437.964L314.512 431.325L316.387 430.808C317.244 430.571 317.922 430.557 318.422 430.764C318.923 430.971 319.262 431.399 319.441 432.047C319.668 432.873 319.401 433.581 318.638 434.169L321.323 436.59L320.088 436.93L317.768 434.717L316.696 435.012ZM323.43 436.009L322.363 436.303L320.978 431.281L322.045 430.986L323.43 436.009ZM320.548 429.968C320.495 429.777 320.506 429.616 320.581 429.485C320.659 429.353 320.794 429.26 320.988 429.206C321.176 429.155 321.335 429.166 321.466 429.241C321.601 429.314 321.694 429.446 321.747 429.637C321.797 429.819 321.784 429.977 321.707 430.112C321.632 430.244 321.501 430.335 321.313 430.387C321.12 430.44 320.956 430.43 320.821 430.357C320.689 430.279 320.598 430.149 320.548 429.968ZM326.291 435.22L322.999 430.723L324.125 430.413L325.952 433.051C326.262 433.493 326.478 433.86 326.598 434.153L326.634 434.143C326.601 433.917 326.598 433.492 326.624 432.866L326.84 429.664L327.976 429.351L327.444 434.902L326.291 435.22ZM332.527 433.597C331.746 433.813 331.072 433.754 330.505 433.422C329.94 433.086 329.547 432.519 329.327 431.719C329.101 430.899 329.127 430.198 329.407 429.616C329.686 429.034 330.183 428.644 330.897 428.447C331.56 428.265 332.139 428.321 332.635 428.618C333.13 428.915 333.475 429.416 333.67 430.121L333.829 430.698L330.482 431.621C330.632 432.104 330.867 432.443 331.188 432.638C331.508 432.83 331.893 432.863 332.344 432.739C332.641 432.657 332.909 432.554 333.148 432.429C333.39 432.301 333.639 432.131 333.897 431.92L334.136 432.787C333.91 432.983 333.671 433.144 333.419 433.268C333.166 433.393 332.869 433.503 332.527 433.597ZM331.12 429.256C330.781 429.349 330.538 429.532 330.392 429.803C330.248 430.074 330.213 430.421 330.288 430.844L332.567 430.215C332.447 429.802 332.26 429.516 332.008 429.358C331.755 429.196 331.459 429.162 331.12 429.256ZM336.991 426.767C337.206 426.708 337.387 426.674 337.535 426.666L337.704 427.689C337.543 427.694 337.381 427.72 337.217 427.765C336.79 427.882 336.482 428.117 336.292 428.469C336.106 428.82 336.074 429.218 336.197 429.663L336.92 432.288L335.853 432.582L334.468 427.56L335.304 427.33L335.689 428.176L335.743 428.161C335.827 427.816 335.978 427.518 336.196 427.269C336.417 427.019 336.682 426.852 336.991 426.767ZM343.033 429.063C343.168 429.554 343.093 429.98 342.809 430.342C342.523 430.7 342.047 430.972 341.381 431.155C340.712 431.34 340.147 431.387 339.686 431.296L339.431 430.374C340.097 430.484 340.684 430.468 341.192 430.328C341.849 430.147 342.123 429.858 342.014 429.461C341.979 429.334 341.913 429.238 341.817 429.174C341.721 429.109 341.577 429.054 341.386 429.009C341.194 428.964 340.934 428.925 340.606 428.892C339.966 428.827 339.512 428.712 339.245 428.544C338.98 428.376 338.798 428.114 338.7 427.756C338.581 427.326 338.662 426.946 338.942 426.615C339.224 426.279 339.664 426.03 340.26 425.865C340.85 425.702 341.442 425.668 342.034 425.762L341.911 426.661C341.307 426.586 340.821 426.6 340.452 426.702C339.888 426.857 339.651 427.095 339.74 427.416C339.783 427.573 339.892 427.686 340.068 427.755C340.246 427.823 340.608 427.885 341.154 427.939C341.613 427.985 341.955 428.049 342.179 428.131C342.404 428.212 342.586 428.328 342.725 428.479C342.863 428.626 342.966 428.821 343.033 429.063Z" fill="#1A1D29"/>
<path d="M229.046 431.293L231.017 430.75C231.931 430.498 232.628 430.449 233.107 430.603C233.589 430.757 233.909 431.121 234.068 431.697C234.174 432.084 234.163 432.434 234.035 432.746C233.906 433.059 233.663 433.3 233.306 433.47L233.318 433.516C233.809 433.475 234.199 433.555 234.489 433.755C234.78 433.951 234.987 434.27 235.109 434.712C235.274 435.309 235.194 435.834 234.869 436.288C234.547 436.739 234.015 437.066 233.274 437.271L230.876 437.932L229.046 431.293ZM230.887 433.737L231.932 433.449C232.386 433.323 232.698 433.161 232.867 432.961C233.036 432.758 233.073 432.484 232.978 432.139C232.892 431.827 232.716 431.633 232.451 431.556C232.188 431.479 231.812 431.508 231.322 431.643L230.382 431.902L230.887 433.737ZM231.13 434.617L231.71 436.72L232.863 436.402C233.317 436.277 233.636 436.096 233.818 435.86C234.003 435.62 234.043 435.312 233.94 434.937C233.845 434.592 233.656 434.369 233.374 434.267C233.092 434.166 232.71 434.182 232.229 434.314L231.13 434.617ZM240.23 435.352L239.824 434.712L239.788 434.722C239.63 435.094 239.444 435.37 239.229 435.55C239.014 435.727 238.714 435.868 238.33 435.974C237.836 436.11 237.414 436.083 237.062 435.894C236.713 435.703 236.471 435.364 236.337 434.877C236.194 434.359 236.279 433.916 236.591 433.546C236.902 433.177 237.448 432.872 238.229 432.63L239.089 432.364L239.015 432.096C238.926 431.775 238.785 431.557 238.59 431.441C238.397 431.322 238.144 431.305 237.829 431.392C237.572 431.463 237.335 431.569 237.12 431.71C236.905 431.851 236.702 432.002 236.513 432.166L235.957 431.498C236.191 431.28 236.459 431.091 236.763 430.929C237.066 430.764 237.361 430.642 237.649 430.562C238.288 430.386 238.807 430.393 239.208 430.582C239.612 430.77 239.896 431.162 240.06 431.759L240.993 435.142L240.23 435.352ZM238.441 435.064C238.828 434.957 239.109 434.764 239.282 434.485C239.459 434.202 239.493 433.865 239.385 433.474L239.265 433.038L238.628 433.244C238.13 433.4 237.787 433.586 237.599 433.801C237.413 434.012 237.362 434.272 237.447 434.581C237.509 434.805 237.624 434.96 237.791 435.048C237.958 435.132 238.174 435.137 238.441 435.064ZM240.521 429.868L241.683 429.547L243.49 432.113C243.756 432.476 243.964 432.829 244.114 433.172L244.15 433.162C244.132 432.988 244.126 432.773 244.134 432.516C244.141 432.257 244.214 431.022 244.353 428.811L245.507 428.493L244.927 434.775C244.825 435.927 244.318 436.629 243.407 436.88C243.171 436.945 242.934 436.983 242.695 436.993L242.463 436.149C242.633 436.141 242.821 436.108 243.027 436.052C243.542 435.91 243.821 435.512 243.866 434.858L243.922 434.334L240.521 429.868ZM250.058 432.739C249.277 432.955 248.603 432.896 248.036 432.564C247.471 432.228 247.078 431.66 246.858 430.861C246.632 430.041 246.658 429.34 246.938 428.758C247.217 428.176 247.714 427.786 248.428 427.589C249.091 427.406 249.67 427.463 250.166 427.76C250.661 428.056 251.006 428.557 251.201 429.263L251.36 429.839L248.013 430.762C248.163 431.246 248.398 431.585 248.719 431.78C249.039 431.972 249.424 432.005 249.875 431.881C250.172 431.799 250.44 431.696 250.679 431.571C250.921 431.443 251.17 431.273 251.428 431.062L251.667 431.929C251.441 432.125 251.202 432.285 250.95 432.41C250.697 432.535 250.4 432.645 250.058 432.739ZM248.651 428.398C248.312 428.491 248.069 428.674 247.923 428.945C247.779 429.216 247.744 429.563 247.819 429.986L250.098 429.357C249.978 428.944 249.791 428.658 249.539 428.5C249.286 428.338 248.99 428.304 248.651 428.398ZM254.451 431.43L253.384 431.724L251.436 424.659L252.503 424.364L254.451 431.43ZM259.147 428.596C259.282 429.086 259.207 429.512 258.923 429.874C258.637 430.233 258.162 430.504 257.496 430.688C256.827 430.873 256.261 430.919 255.8 430.828L255.546 429.907C256.211 430.016 256.798 430.001 257.307 429.861C257.964 429.679 258.237 429.391 258.128 428.994C258.093 428.867 258.027 428.771 257.931 428.706C257.835 428.641 257.692 428.587 257.5 428.542C257.309 428.497 257.049 428.458 256.72 428.425C256.08 428.36 255.626 428.244 255.359 428.077C255.094 427.909 254.913 427.646 254.814 427.289C254.696 426.859 254.776 426.479 255.056 426.147C255.339 425.812 255.778 425.562 256.374 425.398C256.965 425.235 257.556 425.2 258.149 425.294L258.025 426.193C257.422 426.119 256.935 426.132 256.566 426.234C256.003 426.39 255.765 426.628 255.854 426.948C255.897 427.106 256.007 427.219 256.182 427.288C256.36 427.356 256.723 427.417 257.269 427.472C257.728 427.518 258.069 427.582 258.294 427.663C258.518 427.745 258.7 427.861 258.839 428.011C258.978 428.159 259.08 428.354 259.147 428.596ZM264.027 428.789L263.621 428.148L263.585 428.158C263.427 428.531 263.241 428.807 263.027 428.987C262.811 429.163 262.512 429.305 262.127 429.411C261.634 429.547 261.211 429.52 260.859 429.33C260.51 429.14 260.268 428.801 260.134 428.314C259.991 427.796 260.076 427.353 260.388 426.983C260.7 426.614 261.246 426.308 262.026 426.067L262.886 425.801L262.812 425.533C262.724 425.212 262.582 424.994 262.387 424.878C262.195 424.758 261.941 424.742 261.626 424.829C261.369 424.9 261.132 425.006 260.917 425.146C260.702 425.287 260.5 425.439 260.31 425.602L259.755 424.935C259.988 424.717 260.256 424.527 260.56 424.365C260.863 424.2 261.159 424.078 261.446 423.999C262.085 423.823 262.605 423.829 263.005 424.018C263.409 424.207 263.693 424.599 263.858 425.196L264.79 428.578L264.027 428.789ZM262.238 428.501C262.625 428.394 262.906 428.201 263.08 427.921C263.256 427.638 263.29 427.302 263.182 426.911L263.062 426.475L262.425 426.68C261.927 426.837 261.584 427.023 261.396 427.238C261.21 427.449 261.159 427.708 261.245 428.017C261.306 428.241 261.421 428.397 261.588 428.484C261.755 428.569 261.971 428.574 262.238 428.501Z" fill="#1A1D29"/>
<path d="M240.683 340.112C240.985 341.208 240.912 342.131 240.464 342.88C240.015 343.626 239.218 344.157 238.074 344.472L236.217 344.984L234.386 338.346L236.439 337.78C237.495 337.488 238.396 337.546 239.14 337.953C239.884 338.36 240.398 339.08 240.683 340.112ZM239.549 340.464C239.11 338.875 238.148 338.285 236.662 338.695L235.722 338.955L237.05 343.772L237.822 343.559C239.421 343.119 239.996 342.087 239.549 340.464ZM245.337 342.567C244.556 342.782 243.882 342.724 243.314 342.392C242.749 342.056 242.357 341.488 242.136 340.689C241.91 339.868 241.937 339.167 242.216 338.585C242.495 338.003 242.992 337.614 243.707 337.417C244.37 337.234 244.949 337.291 245.444 337.587C245.94 337.884 246.285 338.385 246.479 339.09L246.638 339.667L243.292 340.59C243.441 341.073 243.676 341.412 243.997 341.607C244.317 341.799 244.703 341.833 245.154 341.708C245.45 341.627 245.718 341.523 245.958 341.399C246.199 341.27 246.449 341.1 246.706 340.889L246.946 341.757C246.719 341.953 246.48 342.113 246.228 342.238C245.976 342.363 245.679 342.472 245.337 342.567ZM243.93 338.225C243.59 338.319 243.348 338.501 243.201 338.773C243.058 339.044 243.023 339.391 243.097 339.813L245.376 339.184C245.256 338.771 245.07 338.486 244.818 338.327C244.565 338.166 244.269 338.132 243.93 338.225ZM249.73 341.258L248.663 341.552L246.715 334.486L247.782 334.192L249.73 341.258ZM253.104 339.496C253.364 339.424 253.613 339.312 253.851 339.158L254.073 339.962C253.969 340.046 253.828 340.131 253.649 340.216C253.474 340.303 253.287 340.374 253.087 340.429C252.076 340.708 251.424 340.315 251.13 339.249L250.384 336.543L249.698 336.732L249.568 336.26L250.196 335.666L250.266 334.503L250.925 334.322L251.233 335.439L252.663 335.044L252.886 335.853L251.456 336.247L252.197 338.935C252.268 339.193 252.384 339.366 252.545 339.455C252.709 339.54 252.895 339.554 253.104 339.496ZM258.434 338.857L258.028 338.216L257.991 338.226C257.833 338.599 257.647 338.875 257.433 339.055C257.218 339.231 256.918 339.373 256.534 339.479C256.04 339.615 255.618 339.588 255.266 339.398C254.917 339.208 254.675 338.869 254.541 338.382C254.398 337.864 254.482 337.421 254.794 337.051C255.106 336.682 255.652 336.376 256.433 336.135L257.292 335.869L257.219 335.601C257.13 335.28 256.988 335.062 256.794 334.946C256.601 334.826 256.347 334.81 256.033 334.897C255.775 334.968 255.539 335.074 255.324 335.214C255.109 335.355 254.906 335.507 254.717 335.67L254.161 335.003C254.394 334.785 254.663 334.595 254.967 334.433C255.27 334.268 255.565 334.146 255.853 334.067C256.491 333.891 257.011 333.897 257.412 334.086C257.816 334.275 258.1 334.667 258.264 335.264L259.197 338.646L258.434 338.857ZM256.644 338.569C257.032 338.462 257.312 338.269 257.486 337.99C257.662 337.706 257.697 337.37 257.589 336.979L257.469 336.543L256.831 336.748C256.334 336.905 255.991 337.091 255.803 337.306C255.616 337.517 255.566 337.776 255.651 338.085C255.713 338.309 255.827 338.465 255.995 338.552C256.161 338.637 256.378 338.642 256.644 338.569Z" fill="white"/>
<path d="M243.496 198.854L239.741 199.889L237.911 193.251L241.666 192.215L241.919 193.132L239.249 193.868L239.747 195.676L242.249 194.986L242.499 195.894L239.997 196.584L240.572 198.668L243.242 197.932L243.496 198.854ZM246.727 198.06C246.1 198.233 245.549 198.141 245.072 197.784C244.596 197.426 244.245 196.838 244.019 196.017C243.792 195.194 243.792 194.505 244.02 193.95C244.251 193.391 244.681 193.025 245.31 192.851C245.97 192.669 246.54 192.775 247.019 193.167L247.074 193.152C246.923 192.806 246.819 192.528 246.761 192.319L246.257 190.489L247.328 190.194L249.276 197.259L248.441 197.49L248.073 196.883L248.023 196.897C247.819 197.49 247.387 197.878 246.727 198.06ZM246.775 197.119C247.214 196.998 247.5 196.787 247.632 196.487C247.763 196.183 247.755 195.754 247.609 195.198L247.567 195.048C247.393 194.416 247.166 193.994 246.887 193.785C246.608 193.575 246.248 193.531 245.809 193.652C245.434 193.755 245.187 193.988 245.069 194.35C244.949 194.708 244.967 195.169 245.122 195.732C245.276 196.289 245.492 196.688 245.769 196.927C246.046 197.163 246.382 197.227 246.775 197.119ZM254.748 193.039C254.974 193.859 254.94 194.557 254.646 195.133C254.352 195.71 253.83 196.101 253.079 196.308C252.61 196.438 252.166 196.446 251.747 196.334C251.329 196.221 250.968 195.993 250.665 195.65C250.362 195.307 250.138 194.873 249.994 194.35C249.769 193.535 249.803 192.842 250.094 192.27C250.386 191.697 250.912 191.307 251.672 191.097C252.398 190.897 253.038 190.973 253.591 191.325C254.144 191.674 254.529 192.245 254.748 193.039ZM251.092 194.047C251.412 195.206 252 195.668 252.857 195.431C253.705 195.198 253.969 194.501 253.649 193.342C253.333 192.194 252.748 191.738 251.894 191.974C251.446 192.097 251.161 192.335 251.04 192.688C250.922 193.04 250.94 193.493 251.092 194.047Z" fill="white"/>
<path d="M153.888 118.72C153.539 119.785 153.001 120.526 152.274 120.942C151.549 121.359 150.699 121.408 149.723 121.089C148.735 120.766 148.071 120.225 147.731 119.466C147.395 118.705 147.404 117.784 147.758 116.704C148.111 115.624 148.648 114.881 149.369 114.476C150.093 114.072 150.948 114.031 151.936 114.354C152.909 114.673 153.565 115.213 153.904 115.975C154.243 116.736 154.237 117.652 153.888 118.72ZM148.892 117.085C148.628 117.891 148.591 118.556 148.779 119.08C148.969 119.602 149.383 119.967 150.022 120.176C150.657 120.384 151.204 120.335 151.661 120.028C152.121 119.723 152.484 119.163 152.751 118.348C153.013 117.545 153.051 116.883 152.865 116.363C152.681 115.844 152.272 115.48 151.636 115.272C150.994 115.062 150.441 115.111 149.977 115.418C149.516 115.727 149.154 116.282 148.892 117.085ZM158.647 123.91L157.591 123.564L158.587 120.52C158.712 120.138 158.727 119.828 158.634 119.589C158.543 119.351 158.33 119.178 157.996 119.068C157.552 118.923 157.183 118.948 156.891 119.143C156.6 119.338 156.353 119.745 156.15 120.362L155.343 122.829L154.291 122.485L155.911 117.533L156.735 117.803L156.67 118.501L156.724 118.518C156.95 118.331 157.222 118.218 157.538 118.18C157.855 118.141 158.18 118.177 158.515 118.286C159.703 118.675 160.099 119.474 159.703 120.682L158.647 123.91ZM161.935 125.085C161.317 124.883 160.908 124.501 160.709 123.94C160.509 123.379 160.541 122.695 160.806 121.886C161.072 121.074 161.453 120.5 161.949 120.164C162.45 119.825 163.011 119.757 163.631 119.961C164.282 120.174 164.699 120.576 164.882 121.168L164.936 121.185C165.001 120.814 165.067 120.525 165.135 120.319L165.725 118.515L166.782 118.86L164.502 125.826L163.679 125.557L163.708 124.847L163.658 124.831C163.16 125.213 162.585 125.298 161.935 125.085ZM162.495 124.327C162.928 124.468 163.282 124.451 163.558 124.273C163.836 124.093 164.066 123.731 164.251 123.187L164.299 123.039C164.503 122.415 164.547 121.939 164.43 121.61C164.313 121.281 164.038 121.045 163.605 120.904C163.235 120.783 162.901 120.84 162.602 121.076C162.305 121.309 162.065 121.703 161.884 122.258C161.704 122.807 161.664 123.258 161.763 123.611C161.863 123.961 162.107 124.2 162.495 124.327ZM171.395 125.331C171.13 126.14 170.716 126.703 170.153 127.021C169.589 127.339 168.938 127.377 168.198 127.134C167.735 126.983 167.36 126.745 167.074 126.42C166.787 126.095 166.612 125.705 166.549 125.252C166.486 124.798 166.539 124.313 166.708 123.797C166.97 122.994 167.381 122.435 167.941 122.119C168.5 121.803 169.154 121.768 169.903 122.013C170.619 122.247 171.111 122.664 171.377 123.263C171.645 123.86 171.65 124.549 171.395 125.331ZM167.791 124.152C167.417 125.295 167.652 126.004 168.497 126.281C169.332 126.554 169.937 126.119 170.311 124.976C170.681 123.845 170.446 123.142 169.604 122.867C169.162 122.722 168.794 122.763 168.498 122.99C168.205 123.218 167.97 123.605 167.791 124.152Z" fill="white"/>
<path d="M365.269 371.371L363.439 364.732L364.524 364.432L366.354 371.071L365.269 371.371ZM372.416 369.399L371.344 369.695L370.49 366.598C370.384 366.214 370.233 365.948 370.036 365.8C369.838 365.649 369.585 365.617 369.276 365.702C368.864 365.815 368.599 366.033 368.479 366.356C368.362 366.675 368.389 367.147 368.561 367.77L369.251 370.272L368.184 370.567L366.799 365.544L367.635 365.314L367.966 365.931L368.021 365.916C368.094 365.638 368.244 365.398 368.472 365.195C368.702 364.992 368.977 364.846 369.294 364.759C370.066 364.546 370.651 364.668 371.047 365.125L371.12 365.105C371.2 364.816 371.355 364.565 371.586 364.351C371.817 364.138 372.107 363.983 372.455 363.887C373.054 363.722 373.532 363.753 373.888 363.98C374.247 364.207 374.512 364.631 374.683 365.251L375.585 368.525L374.518 368.82L373.664 365.723C373.558 365.338 373.405 365.073 373.205 364.926C373.007 364.775 372.754 364.742 372.445 364.828C372.031 364.942 371.762 365.156 371.64 365.47C371.521 365.78 371.535 366.203 371.682 366.738L372.416 369.399ZM381.02 364.314C381.247 365.135 381.213 365.833 380.919 366.409C380.625 366.986 380.103 367.377 379.352 367.584C378.883 367.714 378.439 367.722 378.02 367.609C377.601 367.497 377.24 367.269 376.937 366.926C376.634 366.583 376.411 366.149 376.266 365.626C376.042 364.811 376.075 364.118 376.367 363.546C376.659 362.973 377.185 362.582 377.944 362.373C378.671 362.172 379.311 362.248 379.864 362.601C380.416 362.95 380.802 363.521 381.02 364.314ZM377.365 365.323C377.685 366.482 378.273 366.944 379.13 366.707C379.977 366.474 380.241 365.777 379.922 364.618C379.605 363.47 379.02 363.014 378.167 363.25C377.719 363.373 377.434 363.611 377.313 363.964C377.195 364.316 377.212 364.769 377.365 365.323Z" fill="white"/>
<path d="M439.318 384.648L438.147 382.988L435.609 383.688L435.468 385.71L434.323 386.026L434.969 378.675L436.15 378.349L440.471 384.33L439.318 384.648ZM437.603 382.131L436.483 380.495C436.404 380.387 436.288 380.214 436.134 379.976C435.984 379.737 435.877 379.562 435.813 379.449C435.834 379.844 435.827 380.284 435.791 380.769L435.669 382.665L437.603 382.131ZM442.576 378.248C443.203 378.075 443.753 378.168 444.226 378.526C444.702 378.883 445.054 379.472 445.28 380.292C445.507 381.116 445.507 381.806 445.279 382.364C445.051 382.919 444.622 383.283 443.993 383.457C443.357 383.632 442.801 383.54 442.323 383.179L442.251 383.199L442.22 383.848L441.42 384.069L439.472 377.003L440.539 376.709L441.003 378.389C441.037 378.513 441.082 378.699 441.137 378.948C441.193 379.196 441.227 379.355 441.239 379.423L441.284 379.41C441.486 378.817 441.916 378.43 442.576 378.248ZM442.54 379.196C442.11 379.315 441.834 379.527 441.714 379.834C441.595 380.137 441.615 380.586 441.773 381.181L441.793 381.254C441.961 381.866 442.18 382.282 442.45 382.504C442.719 382.723 443.073 382.772 443.512 382.651C443.89 382.547 444.135 382.318 444.246 381.965C444.36 381.611 444.339 381.151 444.183 380.585C443.868 379.444 443.321 378.981 442.54 379.196ZM448.467 382.125L447.4 382.419L446.016 377.397L447.083 377.103L448.467 382.125ZM445.585 376.084C445.533 375.893 445.544 375.732 445.618 375.601C445.696 375.469 445.831 375.376 446.025 375.323C446.213 375.271 446.372 375.282 446.504 375.357C446.638 375.431 446.731 375.563 446.784 375.754C446.834 375.935 446.821 376.094 446.744 376.229C446.67 376.36 446.538 376.452 446.351 376.503C446.157 376.557 445.993 376.547 445.859 376.473C445.726 376.395 445.635 376.266 445.585 376.084ZM453.326 380.785L452.92 380.145L452.883 380.155C452.725 380.527 452.539 380.803 452.325 380.983C452.11 381.159 451.81 381.301 451.426 381.407C450.932 381.543 450.509 381.516 450.158 381.327C449.809 381.136 449.567 380.797 449.433 380.31C449.29 379.792 449.374 379.349 449.686 378.979C449.998 378.61 450.544 378.305 451.325 378.063L452.184 377.797L452.111 377.529C452.022 377.208 451.88 376.99 451.686 376.874C451.493 376.754 451.239 376.738 450.925 376.825C450.667 376.896 450.431 377.002 450.216 377.143C450 377.283 449.798 377.435 449.608 377.598L449.053 376.931C449.286 376.713 449.555 376.524 449.859 376.362C450.162 376.197 450.457 376.074 450.745 375.995C451.383 375.819 451.903 375.825 452.304 376.015C452.708 376.203 452.992 376.595 453.156 377.192L454.089 380.575L453.326 380.785ZM451.536 380.497C451.924 380.39 452.204 380.197 452.378 379.918C452.554 379.635 452.588 379.298 452.481 378.907L452.361 378.471L451.723 378.676C451.226 378.833 450.883 379.019 450.695 379.234C450.508 379.445 450.458 379.705 450.543 380.013C450.605 380.237 450.719 380.393 450.887 380.48C451.053 380.565 451.27 380.57 451.536 380.497Z" fill="white"/>
</svg>
