<svg width="32" height="24" viewBox="0 0 32 24" fill="none" xmlns="http://www.w3.org/2000/svg">
<path d="M31.5 23.1968C31.5 23.3107 31.4619 23.3963 31.4207 23.4457C31.3808 23.4936 31.3476 23.5 31.3307 23.5H7.33067C7.32138 23.5 7.29104 23.4969 7.25112 23.4483C7.2102 23.3986 7.172 23.3119 7.172 23.1968V20.0016C7.172 19.8877 7.20996 19.8015 7.2509 19.7517C7.29088 19.7031 7.32132 19.7 7.33067 19.7H31.3307C31.3477 19.7 31.381 19.7065 31.4209 19.7544C31.4622 19.8038 31.5 19.8889 31.5 20.0016V23.1968ZM3.5 23.1968C3.5 23.3107 3.46193 23.3963 3.42072 23.4457C3.38084 23.4936 3.34765 23.5 3.33067 23.5H0.672C0.652615 23.5 0.618813 23.4926 0.579177 23.4452C0.538047 23.396 0.5 23.3106 0.5 23.1968V20.0016C0.5 19.889 0.537796 19.8041 0.578959 19.7549C0.618648 19.7074 0.652555 19.7 0.672 19.7H3.33067C3.34771 19.7 3.381 19.7065 3.42094 19.7544C3.46218 19.8038 3.5 19.8889 3.5 20.0016V23.1968ZM31.5 13.5984C31.5 13.7122 31.462 13.7971 31.4212 13.846C31.3817 13.8932 31.3485 13.9 31.3307 13.9H7.33067C7.32132 13.9 7.29088 13.8969 7.2509 13.8483C7.20996 13.7985 7.172 13.7123 7.172 13.5984V10.3984C7.172 10.2903 7.20885 10.2049 7.25069 10.1542C7.29172 10.1044 7.32263 10.1016 7.33067 10.1016H31.3307C31.3464 10.1016 31.3802 10.1078 31.4212 10.1568C31.4633 10.2073 31.5 10.2916 31.5 10.3984V13.5984ZM3.5 13.5984C3.5 13.7111 3.46218 13.7962 3.42094 13.8456C3.381 13.8935 3.34771 13.9 3.33067 13.9H0.672C0.652556 13.9 0.618649 13.8926 0.578959 13.8451C0.537796 13.7959 0.5 13.711 0.5 13.5984V10.3984C0.5 10.2904 0.536925 10.2059 0.578958 10.1557C0.619641 10.1071 0.653922 10.1 0.672 10.1H3.33067C3.3464 10.1 3.38017 10.1062 3.42116 10.1552C3.4633 10.2057 3.5 10.29 3.5 10.3968V13.5984ZM31.5 4.0016C31.5 4.10853 31.4632 4.1935 31.4207 4.24451C31.3793 4.29416 31.3456 4.3 31.3307 4.3H7.33067C7.32344 4.3 7.29255 4.29755 7.25112 4.24714C7.20893 4.1958 7.172 4.10976 7.172 4.0016V0.7968C7.172 0.688736 7.20885 0.60335 7.25069 0.552588C7.29173 0.502792 7.32263 0.5 7.33067 0.5H31.3307C31.3464 0.5 31.3802 0.506162 31.4212 0.555214C31.4633 0.605651 31.5 0.689971 31.5 0.7968V4.0016ZM3.5 4.0016C3.5 4.10853 3.46323 4.1935 3.42072 4.24451C3.37934 4.29416 3.3456 4.3 3.33067 4.3H0.672C0.654663 4.3 0.620301 4.2932 0.579177 4.24399C0.536743 4.19321 0.5 4.10851 0.5 4.0016V0.7968C0.5 0.689992 0.536667 0.605944 0.57874 0.555734C0.619479 0.507116 0.653864 0.5 0.672 0.5H3.33067C3.3464 0.5 3.38017 0.506162 3.42116 0.555214C3.4633 0.60565 3.5 0.68997 3.5 0.7968V4.0016Z" stroke="#1B264B"/>
</svg>
